<?xml version="1.0" encoding="utf-8"?>
<!-- Generator: Adobe Illustrator 20.1.0, SVG Export Plug-In . SVG Version: 6.00 Build 0)  -->
<svg version="1.1" xmlns="http://www.w3.org/2000/svg" xmlns:xlink="http://www.w3.org/1999/xlink" x="0px" y="0px"
	 viewBox="0 0 450 450" style="enable-background:new 0 0 450 450;" xml:space="preserve">
<style type="text/css">
	.st0{display:none;}
	.st1{display:inline;fill:none;stroke:#5C5C5E;stroke-width:2.9519;stroke-miterlimit:10;}
	.st2{fill:#3FA9F5;stroke:#5C5C5E;stroke-linecap:round;stroke-linejoin:round;stroke-miterlimit:10;}
	.st3{fill:none;stroke:#ECECEC;stroke-linecap:round;stroke-linejoin:round;stroke-miterlimit:10;}
	.st4{fill:none;stroke:#ECECEC;stroke-linecap:round;stroke-linejoin:round;}
	.st5{fill:none;stroke:#ECECEC;stroke-linecap:round;stroke-linejoin:round;stroke-dasharray:5.0585,2.0234;}
	.st6{fill:none;stroke:#ECECEC;stroke-linecap:round;stroke-linejoin:round;stroke-dasharray:5.0623,2.0249;}
	.st7{fill:none;stroke:#ECECEC;stroke-linecap:round;stroke-linejoin:round;stroke-dasharray:4.206,1.6824;}
	.st8{fill:#F2F2F4;stroke:#878787;stroke-width:2;stroke-linecap:round;stroke-linejoin:round;stroke-miterlimit:10;}
	.st9{fill:#FFFFFF;stroke:#878787;stroke-width:2;stroke-miterlimit:10;}
	.st10{fill:#A0DAFD;}
	.st11{fill:#3FA9F5;}
	.st12{fill:none;stroke:#1A73C9;stroke-width:2;stroke-miterlimit:10;}
	.st13{fill:none;stroke:#FFFFFF;stroke-miterlimit:10;}
	.st14{fill:none;stroke:#0082C8;stroke-width:2;stroke-miterlimit:10;}
	.st15{fill:none;stroke:#878787;stroke-width:1.8874;stroke-miterlimit:10;}
	.st16{fill:none;stroke:#878787;stroke-width:1.8874;stroke-miterlimit:10;stroke-dasharray:5.0432,2.5216;}
	.st17{fill:none;stroke:#878787;stroke-width:1.8874;stroke-miterlimit:10;stroke-dasharray:5.0396,2.5198;}
	.st18{fill:none;stroke:#878787;stroke-width:1.8874;stroke-miterlimit:10;stroke-dasharray:4.9936,2.4968;}
	.st19{fill:none;stroke:#878787;stroke-width:1.8874;stroke-miterlimit:10;stroke-dasharray:4.9576,2.4788;}
	.st20{fill:none;stroke:#878787;stroke-width:1.8874;stroke-miterlimit:10;stroke-dasharray:5.0332,2.5166;}
	.st21{fill:#F2F2F4;}
	.st22{fill:none;stroke:#5C5C5E;stroke-width:2.6577;stroke-miterlimit:10;}
	.st23{clip-path:url(#SVGID_4_);}
	.st24{fill:none;stroke:#5C5C74;stroke-width:0.8859;stroke-miterlimit:10;}
	.st25{fill:#FFFFFF;stroke:#5D5C74;stroke-width:0.8859;stroke-miterlimit:10;}
	.st26{fill:#FBD7CE;}
	.st27{fill:#5C5C74;}
	.st28{fill:#FDFDFD;stroke:#5C5C5E;stroke-width:1.8381;stroke-miterlimit:10;}
	.st29{fill:#ECECEC;stroke:#5C5C5E;stroke-linecap:round;stroke-linejoin:round;stroke-miterlimit:10;}
	.st30{fill:#1A73C9;stroke:#5C5C5E;stroke-linecap:round;stroke-linejoin:round;stroke-miterlimit:10;}
	.st31{fill:#5C5C5E;}
	.st32{fill:#4FAAFC;}
	.st33{fill:#FFFFFF;}
	.st34{fill:#1A73C9;}
	.st35{clip-path:url(#SVGID_14_);}
	.st36{fill:#FBD7CE;stroke:#5C5C5E;stroke-miterlimit:10;}
	.st37{fill:none;stroke:#5C5C5E;stroke-linecap:round;stroke-linejoin:round;stroke-miterlimit:10;}
	.st38{fill:#E7E7E7;}
	.st39{fill:none;stroke:#5C5C5E;stroke-miterlimit:10;}
	.st40{fill:#4FAAFC;stroke:#5C5C5E;stroke-miterlimit:10;}
	.st41{fill:#A0DAFD;stroke:#5C5C5E;stroke-miterlimit:10;}
</style>
<g id="Layer_3" class="st0">
	<path class="st1" d="M429.2,416.3H29.9c-6.5,0-11.8-5.3-11.8-11.8V55.1c0-6.5,5.3-11.8,11.8-11.8h399.2c6.5,0,11.8,5.3,11.8,11.8
		v349.4C441,411,435.7,416.3,429.2,416.3z"/>
</g>
<g id="Layer_5">
</g>
<g id="Layer_7">
	<g>
		<path id="XMLID_28_" class="st2" d="M423.5,244.3l1.1,2.2c0.3,0.7,1,1.2,1.8,1.3l2.5,0.4c1.9,0.3,2.7,2.6,1.3,4l-1.8,1.7
			c-0.6,0.5-0.8,1.3-0.7,2.1l0.4,2.5c0.3,1.9-1.7,3.4-3.4,2.5l-2.2-1.2c-0.7-0.4-1.5-0.4-2.2,0L418,261c-1.7,0.9-3.7-0.6-3.4-2.5
			l0.4-2.5c0.1-0.8-0.1-1.5-0.7-2.1l-1.8-1.7c-1.4-1.4-0.6-3.7,1.3-4l2.5-0.4c0.8-0.1,1.4-0.6,1.8-1.3l1.1-2.2
			C420.1,242.6,422.6,242.6,423.5,244.3z"/>
		<path id="XMLID_29_" class="st2" d="M321.5,365.2l1.1,2.2c0.3,0.7,1,1.2,1.8,1.3l2.5,0.4c1.9,0.3,2.7,2.6,1.3,4l-1.8,1.7
			c-0.6,0.5-0.8,1.3-0.7,2.1l0.4,2.5c0.3,1.9-1.7,3.4-3.4,2.5l-2.2-1.2c-0.7-0.4-1.5-0.4-2.2,0l-2.2,1.2c-1.7,0.9-3.7-0.6-3.4-2.5
			l0.4-2.5c0.1-0.8-0.1-1.5-0.7-2.1l-1.8-1.7c-1.4-1.4-0.6-3.7,1.3-4l2.5-0.4c0.8-0.1,1.4-0.6,1.8-1.3l1.1-2.2
			C318.1,363.5,320.6,363.5,321.5,365.2z"/>
		<circle id="XMLID_27_" class="st3" cx="336.8" cy="345.7" r="3.8"/>
		<circle id="XMLID_6_" class="st3" cx="236.2" cy="389.7" r="3.8"/>
		
			<rect id="XMLID_25_" x="350.2" y="360.5" transform="matrix(0.7071 -0.7071 0.7071 0.7071 -153.7563 356.6327)" class="st3" width="6.9" height="6.9"/>
		
			<rect id="XMLID_24_" x="295.9" y="341.6" transform="matrix(0.7071 -0.7071 0.7071 0.7071 -156.3438 312.7296)" class="st3" width="6.9" height="6.9"/>
		<circle id="XMLID_23_" class="st3" cx="394.6" cy="253.4" r="3.8"/>
		
			<rect id="XMLID_22_" x="400.3" y="288.9" transform="matrix(0.7071 -0.7071 0.7071 0.7071 -88.472 371.1318)" class="st3" width="6.9" height="6.9"/>
		
			<rect id="XMLID_21_" x="416.1" y="223.8" transform="matrix(0.7071 -0.7071 0.7071 0.7071 -37.7948 363.2217)" class="st3" width="6.9" height="6.9"/>
		<polyline id="XMLID_20_" class="st3" points="366.8,373.4 367.2,380.3 360.4,379.9 360.9,386.7 353.9,386.3 354.4,393.1 
			347.5,392.7 347.9,399.5 341.1,399.1 341.5,406 334.8,405.5 		"/>
		<polyline id="XMLID_19_" class="st3" points="423.7,342 424.1,348.8 417.3,348.4 417.7,355.2 410.8,354.8 411.3,361.7 
			404.4,361.2 404.8,368.1 398,367.6 398.4,374.5 391.6,374.1 		"/>
		<polyline id="XMLID_2_" class="st3" points="401.7,181 402.1,187.8 395.3,187.4 395.7,194.2 388.8,193.8 389.3,200.7 382.4,200.2 
			382.8,207.1 376,206.6 376.4,213.5 369.6,213.1 		"/>
		<polyline id="XMLID_18_" class="st3" points="290.6,365.3 291,372.2 284.2,371.7 284.6,378.6 277.9,378.2 278.2,385 271.4,384.6 
			271.9,391.4 264.9,391 265.4,397.8 258.5,397.4 		"/>
		<g id="XMLID_17_">
			<g>
				<line class="st4" x1="399.5" y1="316.8" x2="401.4" y2="315"/>
				<line class="st5" x1="402.8" y1="313.6" x2="427" y2="289.2"/>
				<line class="st4" x1="427.8" y1="288.5" x2="429.5" y2="286.8"/>
			</g>
		</g>
		<g id="XMLID_1_">
			<g>
				<line class="st4" x1="384.8" y1="235.2" x2="386.6" y2="233.4"/>
				<line class="st5" x1="388" y1="232" x2="412.3" y2="207.6"/>
				<line class="st4" x1="413" y1="206.9" x2="414.8" y2="205.2"/>
			</g>
		</g>
		<g id="XMLID_16_">
			<g>
				<line class="st4" x1="388.4" y1="284.4" x2="390.2" y2="282.7"/>
				<line class="st6" x1="391.6" y1="281.2" x2="406" y2="266.9"/>
				<line class="st4" x1="406.8" y1="266.2" x2="408.4" y2="264.4"/>
			</g>
		</g>
		<g id="XMLID_15_">
			<g>
				<line class="st4" x1="218" y1="376.2" x2="219.7" y2="374.4"/>
				<line class="st6" x1="221.2" y1="373" x2="235.5" y2="358.8"/>
				<line class="st4" x1="236.2" y1="357.9" x2="238" y2="356.2"/>
			</g>
		</g>
		<g id="XMLID_14_">
			<g>
				<line class="st4" x1="249.9" y1="377.4" x2="251.5" y2="375.6"/>
				<line class="st5" x1="253" y1="374.2" x2="277.4" y2="349.9"/>
				<line class="st4" x1="278" y1="349.2" x2="279.9" y2="347.4"/>
			</g>
		</g>
		<g id="XMLID_12_">
			<g>
				<line class="st4" x1="403.4" y1="342.4" x2="405.1" y2="340.6"/>
				<line class="st7" x1="406.3" y1="339.4" x2="418.2" y2="327.5"/>
				<line class="st4" x1="418.8" y1="326.9" x2="420.6" y2="325.1"/>
			</g>
		</g>
		<path class="st2" d="M437.4,191.1c0-2.7-2.2-4.9-4.9-4.9c-1.6,0-3,0.8-3.9,2c-0.9-1.2-2.3-2-3.9-2c-2.7,0-4.9,2.2-4.9,4.9
			c0,0-0.7,5.2,8.9,11.1C438.1,196.3,437.4,191.1,437.4,191.1z"/>
		<path class="st2" d="M386.8,349.2c0-2.7-2.2-4.9-4.9-4.9c-1.6,0-3,0.8-3.9,2c-0.9-1.2-2.3-2-3.9-2c-2.7,0-4.9,2.2-4.9,4.9
			c0,0-0.7,5.2,8.9,11.1C387.5,354.4,386.8,349.2,386.8,349.2z"/>
	</g>
</g>
<g id="Calque_1">
	<path id="XMLID_61_" class="st8" d="M395.1,337.1H106.5c-5.5,0-10.8-2.3-14.5-6.3l-0.5-0.5V322H410v8.3l-0.5,0.5
		C405.8,334.8,400.6,337.1,395.1,337.1z"/>
	<rect id="XMLID_60_" x="91.6" y="322" class="st8" width="318.5" height="8.3"/>
	<path id="XMLID_59_" class="st8" d="M250.9,326.5h25.3c3.1,0,6-0.8,8.2-2.3l3.2-2.2h-36.7h-36.7l3.2,2.2c2.1,1.5,5.1,2.3,8.2,2.3
		H250.9z"/>
	<path id="XMLID_58_" class="st8" d="M385.8,322h-270V163.4c0-2.3,1.8-4.1,4.1-4.1h261.8c2.3,0,4.1,1.8,4.1,4.1V322z"/>
	<rect id="XMLID_57_" x="125.8" y="169.2" class="st9" width="250.3" height="142.8"/>
	<rect x="126.9" y="169.2" class="st10" width="42" height="142"/>
</g>
<g id="Layer_4">
	<g>
		<g>
			<path class="st11" d="M326.9,216.6H269v-18.4c0-4.4,3.6-8,8-8h49.9c4.4,0,8,3.6,8,8v10.4C334.9,213,331.4,216.6,326.9,216.6z"/>
			<circle class="st12" cx="354.5" cy="203.4" r="8.2"/>
			<line class="st13" x1="281.4" y1="200" x2="319.4" y2="200"/>
			<line class="st13" x1="281.4" y1="204.3" x2="312.2" y2="204.3"/>
			<line class="st13" x1="281.4" y1="208.5" x2="297.4" y2="208.5"/>
		</g>
		<g>
			<path class="st11" d="M326.9,290.6H269v-18.4c0-4.4,3.6-8,8-8h49.9c4.4,0,8,3.6,8,8v10.4C334.9,287,331.4,290.6,326.9,290.6z"/>
			<circle class="st12" cx="354.5" cy="277.4" r="8.2"/>
			<line class="st13" x1="281.4" y1="274" x2="319.4" y2="274"/>
			<line class="st13" x1="281.4" y1="278.3" x2="312.2" y2="278.3"/>
			<line class="st13" x1="281.4" y1="282.5" x2="297.4" y2="282.5"/>
		</g>
		<g>
			<path class="st10" d="M213.4,254.9h57.9v-18.4c0-4.4-3.6-8-8-8h-49.9c-4.4,0-8,3.6-8,8v10.4C205.2,251.3,208.9,254.9,213.4,254.9
				z"/>
			<circle class="st14" cx="185.6" cy="241.7" r="8.2"/>
			<line class="st13" x1="258.8" y1="238.3" x2="220.9" y2="238.3"/>
			<line class="st13" x1="258.8" y1="242.6" x2="227.9" y2="242.6"/>
			<line class="st13" x1="258.8" y1="246.8" x2="242.9" y2="246.8"/>
		</g>
	</g>
</g>
<g id="Layer_6">
	<g>
		<g>
			<line class="st15" x1="140.9" y1="186.9" x2="142.9" y2="185.4"/>
			<line class="st16" x1="145" y1="183.9" x2="228.7" y2="121.1"/>
			<polyline class="st15" points="229.7,120.3 231.7,118.8 229.4,117.8 			"/>
			<polyline class="st17" points="227.2,116.7 162.3,86 85.7,89 34.6,136.2 			"/>
			<polyline class="st15" points="33.6,137.1 31.8,138.8 31.7,141.3 			"/>
			<line class="st18" x1="31.7" y1="143.8" x2="30.2" y2="209.9"/>
			<polyline class="st15" points="30.2,211.2 30.1,213.7 32.6,213.1 			"/>
			<line class="st19" x1="35" y1="212.6" x2="135.2" y2="189.1"/>
			<line class="st15" x1="136.4" y1="188.8" x2="138.8" y2="188.2"/>
		</g>
	</g>
	<line class="st20" x1="31.8" y1="138.8" x2="139.7" y2="184.6"/>
	<line class="st20" x1="85.7" y1="89" x2="139.7" y2="184.6"/>
	<line class="st20" x1="162.3" y1="86" x2="138.8" y2="188.2"/>
	<polyline class="st20" points="138.8,188.2 77.6,277.3 30.1,213.7 	"/>
</g>
<g id="Layer_2">
	<g>
		<defs>
			<circle id="SVGID_1_" cx="85.7" cy="89" r="25"/>
		</defs>
		<use xlink:href="#SVGID_1_"  style="overflow:visible;fill:#FBFBFB;"/>
		<clipPath id="SVGID_2_">
			<use xlink:href="#SVGID_1_"  style="overflow:visible;"/>
		</clipPath>
	</g>
	<g>
		<circle id="XMLID_84_" class="st21" cx="139.7" cy="184.7" r="50.5"/>
		<circle id="XMLID_83_" class="st22" cx="139.7" cy="184.7" r="50.5"/>
		<g id="XMLID_68_">
			<g>
				<g>
					<g>
						<g>
							<defs>
								<circle id="SVGID_3_" cx="140.1" cy="191.2" r="43.4"/>
							</defs>
							<clipPath id="SVGID_4_">
								<use xlink:href="#SVGID_3_"  style="overflow:visible;"/>
							</clipPath>
							<g id="XMLID_69_" class="st23">
								<path id="XMLID_82_" class="st11" d="M168.9,197.7c6.7,21.1-3.2,37-29.1,37c-27.4,0-35.3-15.9-28.9-37
									c4.1-13.3,2.5-27.8,6.6-34.4c5.9-9.4,11.3-13,22.1-13c10.3,0,16.7,3.3,21,12.4C164.2,170,164.5,184.1,168.9,197.7z"/>
								<path id="XMLID_81_" class="st24" d="M139.5,150.2c-10.3,0-15.8,3.3-21.9,12.8c-2.2,3.5-2.7,9.1-3.5,15.8
									c-0.6,5.8-1.2,12.4-3.2,18.6c-3.5,11.1-2.7,20.3,2,26.6c4.9,6.6,13.8,9.9,26.5,9.9c12.4,0,21.5-3.6,26.6-10.5
									c4.8-6.6,5.6-15.6,2.2-26c-2.1-6.7-3.4-13.6-4.4-19.7c-1.1-6.3-2-11.7-3.8-15.4C156.3,153.8,150.1,150.2,139.5,150.2z"/>
								<path id="XMLID_80_" class="st25" d="M102.7,247c0-15.5,16.7-28.1,37.3-28.1s37.3,12.6,37.3,28.1"/>
								<path id="XMLID_79_" class="st26" d="M148.4,176.2c-8,0-14.9-3.3-18.2-8c-1.3,5.4-5,9.3-9.6,9.9c0,5,0,12.9,0,17.3
									c0,6.6,4.2,15,10.7,19.1v6.6c0,3.7,2.3,8.9,8.5,8.9c5.9,0,8.7-5.2,8.7-8.9V215c7-4,10.7-12.7,10.7-19.6c0-6.6,0-21.8,0-21.8
									c0-0.1,0-0.1,0-0.2C158,175.6,155.2,176.2,148.4,176.2z"/>
								<path id="XMLID_78_" class="st27" d="M139.7,230.2c-6.6,0-8.9-5.6-8.9-9.3v-6.6c-6.2-4.1-10.7-12.1-10.7-19.3v-17.3
									c0-0.2,0.2-0.3,0.3-0.4c4.3-0.5,8-4.3,9.3-9.6c0.1-0.2,0.2-0.3,0.3-0.3c0.2,0,0.3,0.1,0.4,0.2c3.5,4.9,10.3,7.8,17.9,7.8
									c7,0,9.4-0.6,10.5-2.6c0.1-0.2,0.3-0.2,0.4-0.2c0.2,0.1,0.3,0.2,0.3,0.4v0.2v21.8c0,6.6-3.4,15.5-10.7,19.8v5.9
									C148.7,224.7,146,230.2,139.7,230.2z M120.8,178v17c0,7,4.4,14.9,10.5,18.9c0.1,0.1,0.2,0.2,0.2,0.3v6.6
									c0,3.5,2.2,8.5,8.2,8.5c5.7,0,8.3-5,8.3-8.5v-6.2c0-0.1,0.1-0.3,0.2-0.3c7-4,10.5-12.8,10.5-19.3v-20.8
									c-1.7,1.7-4.9,2-10.4,2c-7.6,0-14.4-2.8-18.2-7.5C128.7,173.8,125.2,177.4,120.8,178z"/>
								<g id="XMLID_76_">
									<path id="XMLID_77_" class="st27" d="M143.8,202.1c0,0-1.7,1.9-3.8,1.9c-2,0-3.8-1.9-3.8-1.9s1.7,0.3,3.8,0.3
										C142.2,202.4,143.8,202.1,143.8,202.1z"/>
								</g>
								<g id="XMLID_74_">
									<path id="XMLID_75_" class="st27" d="M140.2,197L140.2,197c-0.6,0-1.2-0.3-1.5-0.7c-0.2-0.3-0.3-0.7-0.2-1.1l0.4,0.1
										c-0.1,0.3-0.1,0.5,0.1,0.8c0.2,0.3,0.6,0.5,1.1,0.5c0.5,0,1.1-0.2,1.2-0.5c0.2-0.3,0.2-0.5,0.1-0.9l0.3-0.2
										c0.2,0.5,0.1,0.9-0.1,1.2C141.5,196.6,140.9,197,140.2,197z"/>
								</g>
								<g id="XMLID_72_">
									<path id="XMLID_73_" class="st27" d="M126.4,185.7c-0.2,0-0.4-0.1-0.5-0.2c-0.3-0.3-0.3-0.7-0.1-1.1c0.9-1,2.2-1.5,3.5-1.4
										c1.1,0.1,1.9,0.6,2.5,1.5c0.2,0.4,0.1,0.8-0.2,1.1c-0.4,0.2-0.8,0.1-1.1-0.2c-0.3-0.4-0.7-0.7-1.3-0.8
										c-0.8-0.1-1.7,0.3-2.2,0.9C126.8,185.6,126.6,185.7,126.4,185.7z"/>
								</g>
								<g id="XMLID_70_">
									<path id="XMLID_71_" class="st27" d="M154.2,185.7c-0.2,0-0.4-0.1-0.5-0.2c-0.6-0.6-1.5-1-2.4-0.9
										c-0.7,0.1-1.3,0.4-1.7,0.9c-0.3,0.3-0.7,0.4-1.1,0.2c-0.3-0.3-0.4-0.7-0.2-1.1c0.6-0.9,1.7-1.3,2.8-1.4
										c1.3-0.1,2.7,0.4,3.5,1.4c0.3,0.3,0.3,0.8,0,1.1C154.6,185.6,154.4,185.7,154.2,185.7z"/>
								</g>
							</g>
						</g>
					</g>
				</g>
			</g>
		</g>
	</g>
	<g>
		<defs>
			<circle id="SVGID_5_" cx="231.7" cy="118.8" r="24.4"/>
		</defs>
		<use xlink:href="#SVGID_5_"  style="overflow:visible;fill:#FFFFFF;"/>
		<clipPath id="SVGID_6_">
			<use xlink:href="#SVGID_5_"  style="overflow:visible;"/>
		</clipPath>
		<use xlink:href="#SVGID_5_"  style="overflow:visible;fill:none;stroke:#5C5C5E;stroke-width:2;stroke-miterlimit:10;"/>
	</g>
	<g>
		<defs>
			<circle id="SVGID_7_" cx="30.1" cy="213.7" r="26.8"/>
		</defs>
		<use xlink:href="#SVGID_7_"  style="overflow:visible;fill:#FFFFFF;"/>
		<clipPath id="SVGID_8_">
			<use xlink:href="#SVGID_7_"  style="overflow:visible;"/>
		</clipPath>
		<use xlink:href="#SVGID_7_"  style="overflow:visible;fill:none;stroke:#5C5C5E;stroke-width:2;stroke-miterlimit:10;"/>
	</g>
	<g>
		<defs>
			<circle id="SVGID_9_" cx="162.3" cy="86" r="23.6"/>
		</defs>
		<use xlink:href="#SVGID_9_"  style="overflow:visible;fill:#FFFFFF;"/>
		<clipPath id="SVGID_10_">
			<use xlink:href="#SVGID_9_"  style="overflow:visible;"/>
		</clipPath>
		<use xlink:href="#SVGID_9_"  style="overflow:visible;fill:none;stroke:#5C5C5E;stroke-width:2;stroke-miterlimit:10;"/>
	</g>
	<circle class="st28" cx="77.6" cy="277.3" r="25.7"/>
	<g>
		<defs>
			
				<ellipse id="SVGID_11_" transform="matrix(0.5877 -0.8091 0.8091 0.5877 -99.2915 81.3168)" cx="30.1" cy="138.1" rx="23.6" ry="23.6"/>
		</defs>
		<use xlink:href="#SVGID_11_"  style="overflow:visible;fill:#FBFBFB;"/>
		<clipPath id="SVGID_12_">
			<use xlink:href="#SVGID_11_"  style="overflow:visible;"/>
		</clipPath>
		<use xlink:href="#SVGID_11_"  style="overflow:visible;fill:none;stroke:#5C5C5E;stroke-width:2;stroke-miterlimit:10;"/>
	</g>
	<g id="XMLID_39_">
		<path id="XMLID_67_" class="st29" d="M246.6,129.1h-28.4c-1.1,0-2-0.9-2-2v-15.6c0-1.1,0.9-2,2-2h28.4c1.1,0,2,0.9,2,2v15.7
			C248.6,128.2,247.7,129.1,246.6,129.1z"/>
		<rect id="XMLID_42_" x="216.2" y="114" class="st30" width="32.4" height="2.9"/>
		<g id="XMLID_41_">
			<rect x="217.9" y="123.7" class="st29" width="10.1" height="1.4"/>
		</g>
		<g id="XMLID_40_">
			<rect x="230.4" y="123.7" class="st29" width="10.1" height="1.4"/>
		</g>
	</g>
	<g>
		<path class="st10" d="M156.6,97.6c0.8,0.1,1.3,0.2,1.8,0.2c3.4-0.2,5.8-2.4,6.2-5.8c0-0.3-0.2-0.9-0.5-1.1
			c-1.1-0.6-2.2-1.1-3.3-1.6c-0.3-0.1-0.8-0.1-1.1,0c-3.1,1.6-6.5,2.1-9.9,2.2c-0.4,0-0.9,0.1-1.3,0.1c0.2,1.1,0.9,1.4,1.8,1.3
			c0.8-0.1,1.6,0,2.4,0c0,0.1,0,0.1,0,0.2c-0.9,0.3-1.7,0.5-2.6,0.8c0,0.1,0,0.2,0,0.3c1.5,0.7,3.1,0.1,5,0.4
			c-1.1,0.4-1.9,0.6-2.9,0.9c2.4,1.9,4.7,0.2,7.3-0.1C158.4,96.3,157.6,96.9,156.6,97.6z"/>
		<path class="st31" d="M149.6,90.3c2.8-0.1,5.6-0.4,8.1-1.5c1.3-0.6,2.4-1.6,3.5-2.5c1.6-1.1,2.5-1.3,3.7-0.4
			c0.5,0.4,1,0.9,1.1,1.5c1.2,3.6-0.9,9-4.3,10.8c-1.6,0.8-3.3,1.2-5.1,0.7c-3.7-1-7.1-2.6-9.3-6c-0.4-0.7-0.5-1.5-0.7-2.3
			c0.7-0.1,1.4-0.2,2.1-0.3C149,90.3,149.3,90.3,149.6,90.3z M156.6,97.6c0.8,0.1,1.3,0.2,1.8,0.2c3.4-0.2,5.8-2.4,6.2-5.8
			c0-0.3-0.2-0.9-0.5-1.1c-1.1-0.6-2.2-1.1-3.3-1.6c-0.3-0.1-0.8-0.1-1.1,0c-3.1,1.6-6.5,2.1-9.9,2.2c-0.4,0-0.9,0.1-1.3,0.1
			c0.2,1.1,0.9,1.4,1.8,1.3c0.8-0.1,1.6,0,2.4,0c0,0.1,0,0.1,0,0.2c-0.9,0.3-1.7,0.5-2.6,0.8c0,0.1,0,0.2,0,0.3
			c1.5,0.7,3.1,0.1,5,0.4c-1.1,0.4-1.9,0.6-2.9,0.9c2.4,1.9,4.7,0.2,7.3-0.1C158.4,96.3,157.6,96.9,156.6,97.6z"/>
		<path class="st31" d="M165.8,85.3c-0.5-0.3-1-0.5-1.5-0.8c1.5-3,3.1-5.9,4.6-8.9c0.6-1.2,1.1-2.3,1.8-3.4c0.2-0.3,0.9-0.6,1.3-0.5
			c0.6,0.2,0.7,0.8,0.4,1.3c-2.1,4.1-4.2,8.1-6.3,12.2C166,85.2,165.9,85.2,165.8,85.3z"/>
		<path class="st31" d="M169.2,96.4c-0.9,0-1.5-0.6-1.5-1.5c0-0.8,0.7-1.6,1.5-1.5c0.9,0.1,1.4,0.5,1.5,1.4
			C170.7,95.7,170.1,96.4,169.2,96.4z"/>
		<path class="st31" d="M166.9,99.2c-0.5,0-0.8-0.3-0.8-0.8c0-0.4,0.4-0.9,0.8-0.8c0.5,0,0.8,0.3,0.8,0.8
			C167.7,98.8,167.4,99.1,166.9,99.2z"/>
		<path class="st31" d="M171.5,99.2c-0.5,0-0.8-0.3-0.8-0.8c0-0.4,0.4-0.9,0.8-0.8c0.5,0,0.8,0.3,0.8,0.8
			C172.3,98.8,172,99.1,171.5,99.2z"/>
	</g>
	<g>
		<path class="st32" d="M35.6,133.8c0-0.2-0.1-0.3-0.1-0.5c0-0.5-0.3-0.6-0.7-0.6c-2.3,0-4.5,0-6.8,0c-0.1,0-0.3,0-0.5,0
			c0.2,0.3,0.4,0.6,0.7,0.8c0.1,0.1,0.2,0.1,0.3,0.1c0.5,0,0.9,0,1.2-0.4c0.4-0.5,0.7-0.5,1.1,0c0.6,0.6,1.3,0.6,1.9,0
			c0.5-0.5,0.7-0.5,1.2,0c0.2,0.2,0.4,0.4,0.6,0.4C34.9,133.8,35.2,133.8,35.6,133.8z"/>
		<path class="st31" d="M20.7,144.1c0,1.5-0.2,1.2-1.3,1.2c-1.5,0-3,0-4.6,0c-0.6,0-0.7-0.2-0.7-0.7c0-3.3,0-6.5,0-9.8
			c0-0.6,0.1-0.8,0.7-0.8c1.6,0,3.3,0,4.9,0c0.8,0,0.9,0.1,0.9,0.9c0,0.1,0,0.3,0,0.5c0.2,0,0.4,0,0.5,0c1.4,0,2.8,0,4.2,0
			c1.9,0,3.4,0.8,4.4,2.4c0.2,0.2,0.3,0.3,0.6,0.3c1.3,0,2.6,0,3.8,0c1.4,0,2.2,0.7,2.3,2.2c0.2-0.1,0.3-0.1,0.5-0.2
			c1.5-0.7,3.1-1.4,4.6-2.1c1.1-0.5,2.1-0.2,2.6,0.8c0.5,0.9,0.1,2-0.9,2.5c-3.4,1.9-6.8,3.7-10.3,5.6c-1,0.6-2.1,0.6-3.3,0.2
			c-2.9-1-5.8-2-8.7-2.9C21,144.2,20.9,144.2,20.7,144.1z M20.7,136.4c0,2.1,0,4.2,0,6.3c0,0.1,0.2,0.3,0.4,0.4c3,1,6.1,2.1,9.1,3.1
			c0.9,0.3,1.8,0.2,2.6-0.2c1.9-1,3.9-2.1,5.8-3.1c1.5-0.8,2.9-1.6,4.4-2.4c0.5-0.3,0.7-0.7,0.5-1.1c-0.2-0.5-0.6-0.6-1.2-0.4
			c-2.2,1-4.3,2-6.5,3c-0.4,0.2-0.9,0.3-1.4,0.3c-2.1,0-4.2,0-6.3,0c-0.2,0-0.3,0-0.5,0c0-0.3,0-0.7,0-1c0.2,0,0.4,0,0.5,0
			c2.1,0,4.2,0,6.3,0c0.3,0,0.7-0.2,1-0.4c0.3-0.3,0.3-0.7,0.1-1.1c-0.2-0.4-0.6-0.6-1-0.6c-1.6,0-3.1,0-4.7,0
			c-0.3,0-0.4-0.1-0.5-0.3c-0.6-1.3-1.7-2.3-3.2-2.4C24.3,136.3,22.5,136.4,20.7,136.4z M19.6,144.3c0-3.1,0-6.2,0-9.2
			c-1.5,0-3,0-4.4,0c0,3.1,0,6.2,0,9.2C16.7,144.3,18.1,144.3,19.6,144.3z"/>
		<path class="st31" d="M33.4,134.2c-0.9,0.8-2.2,0.8-3.1,0c-0.6,0.9-1.4,0.5-2.2,0.5c-0.1,0-0.3-0.2-0.4-0.3
			c-0.5-0.6-0.9-1.2-1.4-1.8c-0.3-0.3-0.2-0.6,0-0.9c0.5-0.5,0.9-1.1,1.3-1.7c0.2-0.3,0.5-0.4,0.8-0.4c2.5,0,5,0,7.5,0
			c0.3,0,0.5-0.1,0.7-0.3c1.3-1.3,3.2-1.6,4.8-0.7c1.6,0.9,2.4,2.8,1.9,4.5c-0.4,1.7-2,3-3.9,3c-1.1,0-2.1-0.4-2.9-1.2
			c-0.2-0.2-0.4-0.3-0.7-0.3c-0.3,0-0.7,0-1,0C34.2,134.8,33.7,134.8,33.4,134.2z M36.4,132.3c0,1.7,1.3,3,3,3c1.7,0,3.1-1.4,3.1-3
			c0-1.7-1.4-3-3.1-3C37.7,129.2,36.4,130.6,36.4,132.3z M27.5,131.8c2.6,0,5.1,0,7.7,0c0.1,0,0.2-0.1,0.3-0.2
			c0.1-0.3,0.1-0.5,0.2-0.8c-2.4,0-4.7,0-7.1,0c-0.1,0-0.2,0.1-0.3,0.1C28,131.1,27.8,131.4,27.5,131.8z M35.6,133.8
			c0-0.2-0.1-0.3-0.1-0.5c0-0.5-0.3-0.6-0.7-0.6c-2.3,0-4.5,0-6.8,0c-0.1,0-0.3,0-0.5,0c0.2,0.3,0.4,0.6,0.7,0.8
			c0.1,0.1,0.2,0.1,0.3,0.1c0.5,0,0.9,0,1.2-0.4c0.4-0.5,0.7-0.5,1.1,0c0.6,0.6,1.3,0.6,1.9,0c0.5-0.5,0.7-0.5,1.2,0
			c0.2,0.2,0.4,0.4,0.6,0.4C34.9,133.8,35.2,133.8,35.6,133.8z"/>
		<path class="st33" d="M20.7,136.4c1.8,0,3.6-0.1,5.4,0c1.5,0.1,2.6,1,3.2,2.4c0.1,0.3,0.3,0.3,0.5,0.3c1.6,0,3.1,0,4.7,0
			c0.5,0,0.8,0.2,1,0.6c0.2,0.4,0.2,0.8-0.1,1.1c-0.3,0.2-0.7,0.4-1,0.4c-2.1,0-4.2,0-6.3,0c-0.2,0-0.3,0-0.5,0c0,0.3,0,0.6,0,1
			c0.2,0,0.3,0,0.5,0c2.1,0,4.2,0,6.3,0c0.5,0,1-0.1,1.4-0.3c2.2-1,4.3-2,6.5-3c0.6-0.3,1-0.1,1.2,0.4c0.2,0.5,0,0.9-0.5,1.1
			c-1.5,0.8-2.9,1.6-4.4,2.4c-1.9,1.1-3.9,2.1-5.8,3.1c-0.8,0.4-1.7,0.5-2.6,0.2c-3.1-1-6.1-2.1-9.1-3.1c-0.2-0.1-0.4-0.2-0.4-0.4
			C20.6,140.7,20.7,138.6,20.7,136.4z"/>
		<path class="st34" d="M19.6,144.3c-1.5,0-3,0-4.4,0c0-3.1,0-6.2,0-9.2c1.5,0,3,0,4.4,0C19.6,138.1,19.6,141.2,19.6,144.3z"/>
		<path class="st10" d="M36.4,132.3c0-1.7,1.3-3,3-3.1c1.7,0,3.1,1.4,3.1,3c0,1.7-1.4,3-3.1,3C37.7,135.3,36.4,133.9,36.4,132.3z"/>
		<path class="st10" d="M27.5,131.8c0.3-0.4,0.5-0.6,0.7-0.9c0.1-0.1,0.2-0.1,0.3-0.1c2.4,0,4.7,0,7.1,0c-0.1,0.3-0.1,0.6-0.2,0.8
			c0,0.1-0.2,0.2-0.3,0.2C32.7,131.8,30.2,131.8,27.5,131.8z"/>
		<circle class="st31" cx="40.6" cy="132.3" r="0.7"/>
	</g>
	<g>
		<g id="_x36_vhdHb.tif_3_">
			<g>
				<path class="st32" d="M30.4,208.4c0.3-0.3,0.6-0.6,0.6-1.1c0.1,0.1,0.1,0.2,0.2,0.3c0.4,0.9,1,1.7,1.6,2.4
					c0.1,0.1,0.2,0.2,0.3,0c1.2-1.2,2.4-2.4,3.6-3.6c0.3-0.3,0.4-0.7,0.8-0.7c0.4,0.6,0.8,1.2,1.3,1.7c0.1,0.1,0.2,0.2,0.3,0.3
					c0.5,0.5,0.7,0.5,1.3,0.1c1.4-0.8,2.8-1.6,4.2-2.4c0.4-0.3,0.9,0,0.9,0.5c0,2.7-1,4.9-3.5,6.2c-1.8,1-3.7,0.9-5.7,0.3
					c-0.8-0.3-1.1-0.2-1.7,0.5c-1.3,1.5-2.6,2.9-4,4.3c-2.3,2.5-4.5,5-6.8,7.5c-0.8,0.9-1.7,1.9-2.5,2.8c-1.5,1.6-4.1,1.4-5.6,0
					c0,0,0,0,0-0.1c0.1-0.2,0.3-0.3,0.4-0.5c0.3-0.3,0.7-0.6,1-0.9c0.1,0.1,0.2,0.1,0.3,0.2c0.6,0.5,1.5,0.5,2.2,0.1
					c0.7-0.4,1-1.2,0.9-2c-0.1-0.5-0.3-0.8-0.6-1.2c0.1,0,0.2-0.2,0.3-0.2c3.8-3.8,7.6-7.6,11.4-11.4c0.1-0.1,0.1-0.2,0.2-0.2
					c0.2-0.2,0.2-0.3,0-0.5C31.3,210,30.8,209.2,30.4,208.4z"/>
				<path class="st10" d="M30.4,208.4c0.4,0.8,0.9,1.6,1.6,2.2c0.2,0.2,0.2,0.3,0,0.5c-0.1,0.1-0.1,0.2-0.2,0.2
					c-3.8,3.8-7.6,7.6-11.4,11.4c-0.1,0.1-0.2,0.2-0.3,0.2c-0.1,0-0.1-0.1-0.2-0.1c-0.7-0.5-1.5-0.6-2.3-0.2c-0.7,0.4-1.1,1.1-1,1.9
					c0,0.5,0.3,0.9,0.6,1.2c-0.2,0.4-0.6,0.6-1,0.9c-0.2,0.2-0.3,0.3-0.4,0.5c-1.5-1.4-1.7-4.1-0.2-5.5c1.3-1.2,2.6-2.4,4-3.7
					c1.3-1.2,2.6-2.4,3.9-3.6C25.8,212.5,28.1,210.4,30.4,208.4z"/>
				<path class="st10" d="M37.5,205.7c-0.4,0.1-0.6,0.5-0.8,0.7c-1.2,1.2-2.4,2.4-3.6,3.6c-0.1,0.1-0.2,0.1-0.3,0
					c-0.6-0.7-1.2-1.5-1.6-2.4c0-0.1-0.1-0.2-0.2-0.3c-0.2-0.7-0.4-1.3-0.5-2c-0.5-3,1-6.1,4.1-7.3c1.8-0.7,3.5-0.6,5.3,0.1
					c0.3,0.1,0.6,0.2,0.8,0.4c0.2,0.1,0.4,0.2,0.4,0.5c0,0.3-0.2,0.4-0.4,0.6c-1.3,0.8-2.7,1.5-4,2.3c-0.2,0.1-0.3,0.3-0.3,0.6
					c0,0.7,0.2,1.3,0.5,1.9C37,204.8,37.2,205.3,37.5,205.7z"/>
			</g>
		</g>
	</g>
	<g>
		<defs>
			<circle id="SVGID_13_" cx="85.7" cy="89" r="25"/>
		</defs>
		<clipPath id="SVGID_14_">
			<use xlink:href="#SVGID_13_"  style="overflow:visible;"/>
		</clipPath>
		<g class="st35">
			<g>
				<path class="st2" d="M103.8,108.3c-4.4,4.9-10.8,8-18,8c-7.2,0-13.6-3.1-18-8c1.3-1.5,3.1-2.6,5.1-3.3l7.4-2.5
					c1-0.3,2.1,0,2.8,0.7l0.8,0.8c1.1,1.1,2.8,1.1,3.9,0l0.8-0.8c0.8-0.8,1.8-1,2.8-0.7l7.4,2.5
					C100.6,105.6,102.4,106.8,103.8,108.3z"/>
				<path class="st36" d="M81.6,99.9v2.5c0,0,0.4,2.4,4,2.4s4-2.4,4-2.4v-2.6"/>
				<g id="XMLID_30_">
					<g id="XMLID_31_">
						<circle id="XMLID_38_" class="st36" cx="85.7" cy="87" r="13.6"/>
						<path id="XMLID_36_" class="st2" d="M85.7,73.3c-7.1,0-13,5.4-13.6,12.3h15.7c1.5,0,2.8-0.8,3.4-2.1l0.5-1l1.1,1.6
							c0.7,1,1.8,1.5,3.1,1.5h3.1C98.7,78.8,92.8,73.3,85.7,73.3z"/>
						<g id="XMLID_33_">
							<path id="XMLID_35_" class="st37" d="M90.5,91.1c0-1.3,1.1-2.5,2.5-2.5s2.5,1.1,2.5,2.5"/>
							<path id="XMLID_34_" class="st37" d="M76,91.1c0-1.3,1.1-2.5,2.5-2.5c1.3,0,2.5,1.1,2.5,2.5"/>
						</g>
						<path id="XMLID_32_" class="st37" d="M79.3,95.8c1.8,1.3,3.9,2.1,6.4,2.1c2.5,0,4.6-0.8,6.4-2.1"/>
					</g>
				</g>
			</g>
		</g>
	</g>
	<g>
		<defs>
			<circle id="SVGID_15_" cx="85.7" cy="89" r="25"/>
		</defs>
		<clipPath id="SVGID_16_">
			<use xlink:href="#SVGID_15_"  style="overflow:visible;"/>
		</clipPath>
		<use xlink:href="#SVGID_15_"  style="overflow:visible;fill:none;stroke:#5C5C5E;stroke-width:2;stroke-miterlimit:10;"/>
	</g>
	<g>
		<path class="st38" d="M89.5,288.8c0,1.5-1.2,2.7-2.7,2.7H68.1c-1.5,0-2.7-1.2-2.7-2.7v-22.7c0-1.5,1.2-2.7,2.7-2.7h18.7
			c1.5,0,2.7,1.2,2.7,2.7V288.8z"/>
		<path class="st39" d="M89.5,288.8c0,1.5-1.2,2.7-2.7,2.7H68.1c-1.5,0-2.7-1.2-2.7-2.7v-22.7c0-1.5,1.2-2.7,2.7-2.7h18.7
			c1.5,0,2.7,1.2,2.7,2.7V288.8z"/>
	</g>
	<rect x="73.2" y="262" class="st40" width="8.7" height="2.9"/>
	<rect x="68.5" y="276.9" class="st41" width="2.4" height="2.4"/>
	<rect x="68.5" y="281.2" class="st41" width="2.4" height="2.4"/>
	<rect x="68.5" y="285.5" class="st41" width="2.4" height="2.4"/>
	<line class="st39" x1="73.7" y1="269.4" x2="85.4" y2="269.4"/>
	<line class="st39" x1="73.7" y1="273.7" x2="85.4" y2="273.7"/>
	<line class="st39" x1="73.7" y1="278" x2="85.4" y2="278"/>
	<line class="st39" x1="73.7" y1="282.4" x2="85.4" y2="282.4"/>
	<line class="st39" x1="73.7" y1="286.7" x2="85.4" y2="286.7"/>
	<path class="st39" d="M68.5,268.8c0.6,0.6,1.1,1.2,1.1,1.2s1.1-1.9,2-2.3"/>
	<path class="st39" d="M68.5,273.1c0.6,0.6,1.1,1.2,1.1,1.2s1.1-1.9,2-2.3"/>
	<g>
		<path class="st39" d="M44.7,205.4c-1.4,0.8-2.8,1.6-4.2,2.5c-0.6,0.4-0.8,0.3-1.3-0.1c-0.1-0.1-0.2-0.2-0.3-0.3
			c-0.5-0.5-0.9-1.1-1.3-1.7c-0.3-0.4-0.5-0.9-0.7-1.4c-0.2-0.6-0.5-1.2-0.5-1.9c0-0.2,0.1-0.4,0.3-0.6c1.3-0.8,2.7-1.5,4-2.3
			c0.2-0.1,0.4-0.3,0.4-0.6c0-0.3-0.2-0.4-0.4-0.5c-0.3-0.1-0.6-0.2-0.8-0.4c-1.8-0.7-3.5-0.8-5.3-0.1c-3.1,1.2-4.5,4.2-4.1,7.3
			c0.1,0.7,0.3,1.3,0.5,2c0,0.5-0.2,0.8-0.5,1.1c-2.3,2.1-4.6,4.1-6.8,6.2c-1.3,1.2-2.6,2.4-4,3.6c-1.3,1.2-2.7,2.4-4,3.7
			c-1.5,1.4-1.4,4.2,0.2,5.5c0,0,0,0,0,0.1c1.5,1.5,4.1,1.7,5.6,0c0.9-0.9,1.7-1.8,2.5-2.8c2.3-2.5,4.5-5,6.8-7.5
			c1.3-1.5,2.6-2.9,4-4.3c0.6-0.7,0.8-0.8,1.7-0.5c1.9,0.6,3.8,0.7,5.7-0.3c2.5-1.3,3.5-3.5,3.5-6.2
			C45.5,205.4,45.1,205.2,44.7,205.4z M19.7,226.2c-0.7,0.4-1.6,0.4-2.2-0.1c-0.1-0.1-0.2-0.1-0.2-0.2c-0.3-0.4-0.5-0.8-0.6-1.2
			c0-0.8,0.3-1.5,1-1.9c0.8-0.4,1.5-0.4,2.3,0.2c0,0,0.1,0.1,0.2,0.1c0.3,0.4,0.5,0.7,0.6,1.2C20.7,225,20.3,225.8,19.7,226.2z"/>
	</g>
</g>
</svg>
