<?xml version="1.0" encoding="utf-8"?>
<!-- Generator: Adobe Illustrator 20.1.0, SVG Export Plug-In . SVG Version: 6.00 Build 0)  -->
<svg version="1.1" id="Calque_1" xmlns="http://www.w3.org/2000/svg" xmlns:xlink="http://www.w3.org/1999/xlink" x="0px" y="0px"
	 viewBox="0 0 450 450" style="enable-background:new 0 0 450 450;" xml:space="preserve">
<style type="text/css">
	.st0{fill:none;stroke:#5D5C74;stroke-width:4;stroke-miterlimit:10;}
	.st1{fill:#3FA9F5;stroke:#5C5C5E;stroke-width:2;stroke-miterlimit:10;}
	.st2{fill:#5C5C74;}
	.st3{fill:#344258;stroke:#5D5C74;stroke-width:4;stroke-miterlimit:10;}
	.st4{fill:#FBD7CE;}
	.st5{fill:#E4E6E9;}
	.st6{fill:#CDCFD2;}
	.st7{fill:#5D5C74;}
	.st8{fill:#FFFFFF;}
	.st9{fill:#DFE1E2;}
	.st10{fill:#EDEEEF;}
	.st11{fill:none;stroke:#5D5C74;stroke-width:3;stroke-miterlimit:10;}
	.st12{fill:none;stroke:#335FFF;stroke-width:2;stroke-miterlimit:10;}
</style>
<line id="XMLID_2254_" class="st0" x1="35.6" y1="393.5" x2="426.5" y2="393.5"/>
<path id="XMLID_2253_" class="st1" d="M353.1,238.3c13.2,41.1-6.3,72.3-56.9,72.3c-53.5,0-69-31.1-56.3-72.3
	c8-26,4.9-54.3,13.1-67.2c11.5-18.3,22.1-25.4,43.2-25.4c19.9,0,32.8,6.3,41,24.1C343.9,184.3,344.6,211.6,353.1,238.3z"/>
<path id="XMLID_2249_" class="st2" d="M295.9,310.6c-25.2,0-43-6.7-52.9-20.1c-9.5-12.8-10.9-31.2-4.1-53.2
	c3.7-12.1,5-24.8,6.2-36.1c1.4-13,2.5-24.3,7-31.4c12.1-19.2,23.1-25.7,43.8-25.7c21.3,0,33.7,7.3,41.6,24.5
	c3.4,7.4,5.3,18.1,7.4,30.4c2,11.8,4.4,25.1,8.6,38.2c6.7,20.9,5.1,38.9-4.5,52.1C338.8,303.2,320.5,310.6,295.9,310.6z
	 M295.9,145.6c-20.1,0-30.9,6.3-42.6,25c-4.2,6.8-5.4,17.9-6.8,30.7c-1.2,11.3-2.5,24.1-6.3,36.3c-6.6,21.6-5.2,39.5,3.9,51.9
	c9.6,12.9,27,19.5,51.7,19.5c24.1,0,42.1-7.1,51.9-20.6c9.4-12.8,10.8-30.4,4.3-50.8c-4.2-13.2-6.5-26.6-8.6-38.4
	c-2.1-12.2-4-22.8-7.3-30.1C328.5,152.7,316.5,145.6,295.9,145.6z"/>
<path id="XMLID_2248_" class="st3" d="M223.9,334.5c0-30.3,32.6-54.8,72.9-54.8s72.9,24.5,72.9,54.8"/>
<path id="XMLID_2243_" class="st4" d="M313.1,196.2c-15.6,0-29.2-6.4-35.6-15.6c-2.6,10.4-9.9,18.2-18.7,19.3c0,9.8,0,25.3,0,33.8
	c0,13,8.1,29.2,20.9,37.4v13c0,7.3,4.6,17.5,16.6,17.5c11.7,0,16.9-10.2,16.9-17.5V272c13.6-7.8,20.9-24.8,20.9-38.3
	c0-13,0-42.6,0-42.6c0-0.1,0-0.2,0-0.3C331.9,195.1,326.4,196.2,313.1,196.2z"/>
<path id="XMLID_2240_" class="st2" d="M296.2,301.8c-12.7,0-17.3-10.9-17.3-18.2v-12.7c-12.1-8-20.9-23.8-20.9-37.8v-33.8
	c0-0.4,0.3-0.7,0.6-0.7c8.4-1,15.5-8.4,18.1-18.8c0.1-0.3,0.3-0.5,0.6-0.5c0.3,0,0.5,0.1,0.7,0.3c6.6,9.5,20,15.3,35,15.3
	c13.6,0,18.3-1.2,20.3-5c0.1-0.3,0.5-0.4,0.8-0.4c0.3,0.1,0.5,0.4,0.5,0.7v0.3v42.6c0,12.7-6.6,30.2-20.9,38.7v11.7
	C313.8,291.2,308.3,301.8,296.2,301.8z M259.4,200.1v33.1c0,13.7,8.7,29.1,20.6,36.8c0.2,0.1,0.3,0.4,0.3,0.6v13
	c0,6.7,4.2,16.8,15.9,16.8c11.1,0,16.2-9.8,16.2-16.8v-12.1c0-0.3,0.1-0.5,0.4-0.6c13.5-7.8,20.6-24.8,20.6-37.7v-40.7
	c-3.2,3.3-9.5,3.9-20.3,3.9c-14.8,0-28.2-5.6-35.3-14.7C274.8,191.7,267.7,198.8,259.4,200.1z"/>
<g id="XMLID_2238_">
	<path id="XMLID_2239_" class="st2" d="M304.2,247.1c0,0-3.3,3.7-7.3,3.7s-7.3-3.7-7.3-3.7s3.3,0.5,7.3,0.5
		C300.9,247.5,304.2,247.1,304.2,247.1z"/>
</g>
<g id="XMLID_2236_">
	<path id="XMLID_2237_" class="st2" d="M297.2,236.9h-0.1c-1.1,0-2.2-0.5-2.7-1.3c-0.4-0.6-0.5-1.4-0.3-2.1l0.7,0.2
		c-0.2,0.5-0.1,1.1,0.2,1.5c0.4,0.6,1.2,1,2.2,1c1.1,0,2.1-0.4,2.6-1.1c0.3-0.5,0.3-1,0.1-1.6l0.7-0.3c0.4,1,0.2,1.8-0.2,2.3
		C299.7,236.4,298.5,236.9,297.2,236.9z"/>
</g>
<path id="XMLID_2235_" class="st5" d="M377.4,319v86.3c0,4.5-3.6,8.1-8.1,8.1H222.9c-4.5,0-8.1-3.6-8.1-8.1v-86.4
	c0-4.5,3.6-8.1,8.1-8.1h146.3C373.7,310.8,377.4,314.5,377.4,319"/>
<path id="XMLID_2234_" class="st6" d="M377.4,395.8v9.5c0,4.5-3.6,8.1-8.1,8.1H222.9c-4.5,0-8.1-3.6-8.1-8.1v-9.6L377.4,395.8z"/>
<path id="XMLID_2233_" class="st7" d="M214.8,363.8c-1,0-1.7-0.8-1.7-1.7V345c0-1,0.9-1.6,1.7-1.6c0.9,0,1.6,0.8,1.6,1.6v17.1
	C216.5,363.1,215.8,363.8,214.8,363.8"/>
<path id="XMLID_2232_" class="st7" d="M369.2,415.2H222.9c-5.4,0-9.8-4.4-9.8-9.8v-32.8c0-1,0.9-1.6,1.7-1.6c0.9,0,1.6,0.8,1.6,1.6
	v32.8c0,3.5,2.9,6.5,6.4,6.5h146.4c3.5,0,6.4-2.9,6.4-6.5V319c0-3.5-2.9-6.5-6.4-6.5H222.9c-3.5,0-6.4,2.9-6.4,6.5v17
	c0,1-0.8,1.7-1.7,1.7s-1.7-0.8-1.7-1.7v-17c0-5.4,4.4-9.8,9.8-9.8h146.3c5.4,0,9.8,4.4,9.8,9.8v86.3
	C379.1,410.7,374.7,415.2,369.2,415.2"/>
<path id="XMLID_2228_" class="st8" d="M366.3,346.5c-0.8,0-1.3-0.6-1.3-1.3v-15.6c0-3.7-3.1-6.8-6.8-6.8h-17.5
	c-0.8,0-1.3-0.6-1.3-1.3c0-0.8,0.6-1.3,1.3-1.3h17.5c5.3,0,9.5,4.3,9.5,9.5v15.6C367.7,345.8,367.1,346.5,366.3,346.5 M331,322.8
	h-12.2c-0.8,0-1.3-0.6-1.3-1.3c0-0.8,0.6-1.3,1.3-1.3H331c0.8,0,1.3,0.6,1.3,1.3C332.4,322.1,331.8,322.8,331,322.8 M300.8,369
	c6.4,7.6,1.5,11.1-4.6,11.1s-11.1-5-11.1-11.1s5-11.1,11.1-11.1C302.3,357.9,305.2,363.5,300.8,369"/>
<path id="XMLID_2224_" class="st7" d="M296.1,359.5c-5.2,0-9.4,4.2-9.4,9.4s4.2,9.4,9.4,9.4c2.9,0,5.2-0.9,5.7-2.2
	c0.7-1.3-0.2-3.5-2.4-6.1c-0.5-0.6-0.6-1.5,0-2.2c1.7-2.1,2.2-4.3,1.3-5.9C300.1,360.5,298.3,359.5,296.1,359.5 M296.1,381.8
	c-7.1,0-12.8-5.7-12.8-12.8s5.7-12.8,12.8-12.8c3.5,0,6.4,1.6,7.7,4.3c1.2,2.5,0.9,5.5-1,8.4c2.5,3.3,3.2,6.3,2.1,8.7
	C303.7,380.3,300.4,381.8,296.1,381.8"/>
<path id="XMLID_2222_" class="st7" d="M294.4,353c-1,0-1.7-0.8-1.7-1.7c0-0.2,0-0.3,0.1-0.5s1.5-5.3,5.8-6.6
	c0.9-0.3,1.8,0.3,2.1,1.2c0.2,0.9-0.3,1.8-1.1,2c-2.4,0.8-3.5,4.2-3.5,4.3C295.8,352.5,295.1,353,294.4,353"/>
<path id="XMLID_2217_" class="st9" d="M131.9,402.8h23.6v-35.3h-23.7L131.9,402.8L131.9,402.8z"/>
<path id="XMLID_2213_" class="st7" d="M133.6,401h20.3v-31.9h-20.3V401z M155.6,404.5h-23.7c-1,0-1.7-0.8-1.7-1.7v-35.3
	c0-1,0.8-1.7,1.7-1.7h23.7c1,0,1.7,0.8,1.7,1.7v35.3C157.3,403.7,156.6,404.5,155.6,404.5z"/>
<path id="XMLID_2208_" class="st7" d="M155.6,398.1c-1,0-1.7-0.8-1.7-1.7c0-1,0.8-1.7,1.7-1.7c5.3,0,9.6-4.3,9.6-9.6
	s-4.3-9.6-9.6-9.6c-1,0-1.7-0.8-1.7-1.7c0-1,0.8-1.7,1.7-1.7c7.2,0,12.9,5.8,12.9,13C168.5,392.3,162.7,398.1,155.6,398.1
	 M143.8,363c-0.3,0-0.6-0.1-0.8-0.4c-0.3-0.4-3.1-4.2-2.5-6.8c0.3-1.1,1-2,1.7-2.9c0.9-1.1,1.7-2,1.8-3.6c0.1-0.6,0.6-1,1.1-1
	c0.6,0.1,1,0.6,1,1.1c-0.2,2.3-1.3,3.6-2.3,4.8c-0.6,0.7-1.1,1.3-1.2,2c-0.3,1.3,1.3,4,2.1,5.1c0.4,0.5,0.3,1.1-0.2,1.4
	C144.2,362.9,144,363,143.8,363 M138,362.3c-0.1,0-0.2,0-0.3-0.1c-0.2-0.2-2.1-1.4-2.3-2.8c-0.1-0.6,0.1-1.1,0.4-1.6
	c0.3-0.7,0.5-1.2,0.3-2c-0.1-0.3,0.1-0.6,0.4-0.6c0.3-0.1,0.6,0.1,0.6,0.4c0.3,1.1-0.1,1.9-0.3,2.6c-0.2,0.4-0.3,0.8-0.3,1.1
	c0.1,0.6,1.1,1.5,1.8,2.1c0.2,0.2,0.3,0.5,0.1,0.7C138.3,362.2,138.2,362.3,138,362.3 M149.6,362.5c-0.2,0-0.4-0.1-0.5-0.4
	c-0.1-0.3-0.9-2.5-0.2-3.6c0.3-0.5,0.8-0.9,1.2-1.1c0.6-0.4,1.1-0.7,1.4-1.4c0.1-0.3,0.4-0.4,0.7-0.2c0.2,0.1,0.4,0.4,0.3,0.7
	c-0.5,1.1-1.2,1.5-1.8,1.9c-0.4,0.3-0.8,0.5-0.9,0.8c-0.3,0.6,0,1.9,0.3,2.8c0.1,0.3,0,0.6-0.3,0.7h-0.2"/>
<path id="XMLID_2205_" class="st8" d="M139.8,387c-0.8,0-1.5-0.6-1.5-1.5v-11c0-0.8,0.6-1.5,1.5-1.5c0.9,0,1.5,0.6,1.5,1.5v11
	C141.3,386.3,140.7,387,139.8,387C139.8,387.1,139.8,387.1,139.8,387 M139.8,399.5c-0.8,0-1.5-0.6-1.5-1.5v-5.6
	c0-0.8,0.6-1.5,1.5-1.5c0.9,0,1.5,0.6,1.5,1.5v5.6C141.3,398.8,140.7,399.5,139.8,399.5"/>
<path id="XMLID_2204_" class="st6" d="M134.1,258.3L106.5,286c0,0-6.4-5.9-7.3-11c0,0-4.6-11.7,5.9-20.9c0,0,6.1-7.2,18.8-4.1
	C123.8,250.1,130.8,252.3,134.1,258.3z"/>
<path id="XMLID_2203_" class="st7" d="M68.4,238.8c0.1-0.3,0.3-0.5,0.5-0.6c0.2-0.1,0.5-0.1,0.8,0l33,14.5c0.1,0.1,0.2,0.1,0.3,0.2
	c8.5-7.8,21.8-7.6,30.1,0.6c1.3,1.3,2.3,2.7,3.2,4.2l0,0c0.4,0.4,0.4,1.1,0,1.5l-2.3,2.3h-3.1l3.2-3.2c-0.7-1.1-1.6-2.2-2.6-3.2
	c-7.6-7.6-20-7.6-27.7,0c-5.4,5.4-6.9,13.1-4.7,19.9l0,0c0.1,0.4,0,0.8-0.3,1.1c-0.4,0.4-1.1,0.4-1.5,0c-0.1-0.1-0.1-0.1-0.1-0.2
	c0,0,0,0-0.1,0v-0.1c0-0.1,0-0.1-0.1-0.2c-2.3-7.2-0.8-15.4,4.6-21.3l-31.8-13.9L57,281.3h-2L68.4,238.8z"/>
<path id="XMLID_2202_" class="st7" d="M70,403.7c-0.3,0-0.5-0.1-0.7-0.3l-21.7-26.7H50l20.5,25.1h35.4c0.5,0,0.9,0.4,0.9,0.9v5
	c0,0.5-0.4,0.9-0.9,0.9l-75.8,0.8l0,0c-0.5,0-0.9-0.4-0.9-0.9s0.4-0.9,0.9-0.9l74.8-0.8v-3.1H70z"/>
<path id="XMLID_2201_" class="st7" d="M108.1,287.6c-0.4,0.4-1.1,0.4-1.6,0c-0.4-0.4-0.4-1.1,0-1.6l5.7-5.7v3.1L108.1,287.6z"/>
<path id="XMLID_2200_" class="st10" d="M129.3,280.5c-4.1,4.1-10.5,4.3-14.9,0.6l15.5-15.5C133.6,270,133.4,276.5,129.3,280.5z"/>
<path id="XMLID_2197_" class="st7" d="M134,261.6h-3.1l-18.7,18.7v3.1l0.7-0.7c5.2,4.5,13.1,4.3,18-0.6c4.9-4.9,5.1-12.8,0.6-18
	L134,261.6z M129.9,265.7c3.7,4.3,3.5,10.8-0.6,14.9c-4.1,4.1-10.5,4.3-14.9,0.6L129.9,265.7z"/>
<path id="XMLID_2196_" class="st5" d="M35.5,371.4c-6.2,0-11.2-5-11.2-11.2s5-11.2,11.2-11.2s11.2,5,11.2,11.2
	C46.6,366.4,41.6,371.4,35.5,371.4z"/>
<path id="XMLID_2123_" class="st7" d="M47.6,376.7H50l-5.6-6.9c2.5-2.4,4.1-5.7,4.1-9.5c0-5.6-3.5-10.3-8.4-12.2l1.5-4.9h-2
	l-1.4,4.4c-0.9-0.2-1.9-0.3-2.8-0.3c-7.2,0-13,5.8-13,13s5.8,13,13,13c2.8,0,5.3-0.9,7.5-2.4L47.6,376.7z M35.5,371.4
	c-6.2,0-11.2-5-11.2-11.2s5-11.2,11.2-11.2s11.2,5,11.2,11.2C46.6,366.4,41.6,371.4,35.5,371.4z"/>
<rect id="XMLID_2119_" x="30.1" y="403.7" class="st6" width="74.8" height="3.9"/>
<line id="XMLID_2118_" class="st11" x1="39" y1="348.6" x2="56.5" y2="279.9"/>
<g id="XMLID_2109_">
	<path id="XMLID_2113_" class="st2" d="M270.1,214.8c-0.4,0-0.7-0.1-1-0.4c-0.6-0.5-0.6-1.5-0.1-2c1.8-1.9,4.4-2.9,6.8-2.7
		c2,0.2,3.8,1.2,4.8,2.8c0.4,0.7,0.2,1.6-0.4,2c-0.7,0.4-1.6,0.2-2-0.4c-0.5-0.9-1.5-1.4-2.6-1.5c-1.6-0.1-3.2,0.5-4.4,1.8
		C270.9,214.7,270.5,214.8,270.1,214.8z"/>
</g>
<g id="XMLID_1696_">
	<path id="XMLID_2072_" class="st2" d="M324.5,214.8c-0.4,0-0.8-0.1-1-0.4c-1.2-1.3-3-2-4.7-1.9c-1.4,0.1-2.7,0.7-3.4,1.7
		c-0.5,0.6-1.4,0.8-2,0.3s-0.8-1.4-0.3-2c1.3-1.6,3.3-2.7,5.5-2.8c2.6-0.1,5.2,0.9,7,2.8c0.6,0.6,0.5,1.5,0,2
		C325.2,214.7,324.8,214.8,324.5,214.8z"/>
</g>
<path id="XMLID_2363_" class="st12" d="M278.1,113.8c-0.6,0.5-1.3,0.8-2.2,0.8c-1.8,0-3.3-1.5-3.3-3.3s1.5-3.3,3.3-3.3
	c1.8,0,3.3,1.5,3.3,3.3c0,0.6-0.1,1.1-0.4,1.5"/>
<path id="XMLID_2366_" class="st12" d="M425.7,119.1c-0.5,0.5-1.2,0.7-2,0.7c-1.7,0-3.1-1.4-3.1-3.1c0-1.7,1.4-3.1,3.1-3.1
	s3.1,1.4,3.1,3.1c0,0.5-0.1,1-0.4,1.4"/>
<path id="XMLID_958_" class="st12" d="M335.7,91.9c-1.2,1.1-2.9,1.7-4.7,1.7c-3.9,0-7.1-3.2-7.1-7.1s3.2-7.1,7.1-7.1
	c3.9,0,7.1,3.2,7.1,7.1c0,1.2-0.3,2.3-0.8,3.3"/>
<path id="XMLID_956_" class="st12" d="M341.2,51.2c-0.8,0.7-1.9,1.2-3.1,1.2c-2.6,0-4.7-2.1-4.7-4.7s2.1-4.7,4.7-4.7
	s4.7,2.1,4.7,4.7c0,0.8-0.2,1.6-0.6,2.2"/>
<path id="XMLID_955_" class="st12" d="M342,159.9c-0.4,0.4-1,0.6-1.6,0.6c-1.3,0-2.4-1.1-2.4-2.4s1.1-2.4,2.4-2.4s2.4,1.1,2.4,2.4
	c0,0.4-0.1,0.8-0.3,1.1"/>
<path id="XMLID_954_" class="st12" d="M291.2,66.3c-0.8,0.7-1.9,1.2-3.1,1.2c-2.6,0-4.7-2.1-4.7-4.7c0-2.6,2.1-4.7,4.7-4.7
	c2.6,0,4.7,2.1,4.7,4.7c0,0.8-0.2,1.6-0.6,2.2"/>
<path id="XMLID_953_" class="st12" d="M359,135.2c-0.8,0.7-1.9,1.2-3.1,1.2c-2.6,0-4.7-2.1-4.7-4.7s2.1-4.7,4.7-4.7s4.7,2.1,4.7,4.7
	c0,0.8-0.2,1.6-0.6,2.2"/>
<path id="XMLID_952_" class="st12" d="M410.7,47c-0.4,0.4-1,0.6-1.6,0.6c-1.3,0-2.4-1.1-2.4-2.4s1.1-2.4,2.4-2.4s2.4,1.1,2.4,2.4
	c0,0.4-0.1,0.8-0.3,1.1"/>
<path id="XMLID_951_" class="st12" d="M202.7,81.1c-0.4,0.4-1,0.6-1.6,0.6c-1.3,0-2.4-1.1-2.4-2.4c0-1.3,1.1-2.4,2.4-2.4
	s2.4,1.1,2.4,2.4c0,0.4-0.1,0.8-0.3,1.1"/>
<path id="XMLID_950_" class="st12" d="M236.2,56.5c-0.4,0.4-1,0.6-1.6,0.6c-1.3,0-2.4-1.1-2.4-2.4s1.1-2.4,2.4-2.4s2.4,1.1,2.4,2.4
	c0,0.4-0.1,0.8-0.3,1.1"/>
<path id="XMLID_949_" class="st12" d="M410.7,181.2c-0.4,0.4-1,0.6-1.6,0.6c-1.3,0-2.4-1.1-2.4-2.4s1.1-2.4,2.4-2.4s2.4,1.1,2.4,2.4
	c0,0.4-0.1,0.8-0.3,1.1"/>
</svg>
