<?xml version="1.0" encoding="utf-8"?>
<!-- Generator: Adobe Illustrator 20.1.0, SVG Export Plug-In . SVG Version: 6.00 Build 0)  -->
<svg version="1.1" id="Calque_1" xmlns="http://www.w3.org/2000/svg" xmlns:xlink="http://www.w3.org/1999/xlink" x="0px" y="0px"
	 viewBox="0 0 466.8 450" style="enable-background:new 0 0 466.8 450;" xml:space="preserve">
<style type="text/css">
	.st0{fill:none;stroke:#5C5C5E;stroke-width:2;stroke-miterlimit:10;}
	.st1{fill:#0D82C5;stroke:#5C5C5E;stroke-miterlimit:10;}
	.st2{fill:#3FA9F5;stroke:#5C5C5E;stroke-width:2;stroke-miterlimit:10;}
	.st3{fill:#344258;stroke:#5C5C5E;stroke-miterlimit:10;}
	.st4{fill:#FBD7CE;}
	.st5{fill:#5C5C5E;}
	.st6{fill:#E4E6E9;}
	.st7{fill:#CDCFD2;}
	.st8{fill:#FFFFFF;}
	.st9{fill:#FBD7CE;stroke:#5C5C5E;stroke-miterlimit:10;}
	.st10{fill:#FBD7CE;stroke:#5E5C74;stroke-miterlimit:10;}
	.st11{fill:#FACAB8;}
	.st12{fill:#1A73C9;}
	.st13{fill:#A0DAFD;stroke:#5C5C74;stroke-width:2;stroke-miterlimit:10;}
</style>
<line id="XMLID_2582_" class="st0" x1="0" y1="299.2" x2="466.8" y2="299.2"/>
<path id="XMLID_2581_" class="st1" d="M419.1,198.3c8.6,26.7-4.1,47-37,47c-34.8,0-44.8-20.2-36.6-47c5.2-16.9,3.2-35.3,8.5-43.7
	c7.5-11.9,14.4-16.5,28.1-16.5c13,0,21.3,4.1,26.6,15.7C413.1,163.2,413.5,181,419.1,198.3z"/>
<path id="XMLID_4523_" class="st2" d="M381.8,138.1c-13.1,0-20.1,4.1-27.7,16.3c-2.8,4.4-3.5,11.6-4.4,20
	c-0.8,7.3-1.6,15.7-4.1,23.6c-4.3,14-3.4,25.7,2.6,33.8c6.2,8.4,17.5,12.7,33.6,12.7c15.7,0,27.4-4.6,33.8-13.4
	c6.1-8.3,7-19.7,2.8-33c-2.7-8.6-4.3-17.3-5.6-25c-1.4-7.9-2.6-14.8-4.7-19.5C403.1,142.7,395.3,138.1,381.8,138.1z"/>
<path id="XMLID_2569_" class="st3" d="M335.1,260.9c0-19.7,21.2-35.6,47.4-35.6s47.4,16,47.4,35.6"/>
<path id="XMLID_2564_" class="st4" d="M393.1,171c-10.2,0-19-4.1-23.1-10.2c-1.7,6.8-6.4,11.8-12.2,12.5c0,6.3,0,16.4,0,21.9
	c0,8.5,5.3,19,13.6,24.3v8.5c0,4.7,3,11.4,10.8,11.4c7.6,0,11-6.6,11-11.4v-7.9c8.8-5.1,13.6-16.1,13.6-24.9c0-8.5,0-27.7,0-27.7
	c0-0.1,0-0.1,0-0.2C405.3,170.3,401.7,171,393.1,171z"/>
<path id="XMLID_4517_" class="st5" d="M382.1,239.6c-8.3,0-11.3-7.1-11.3-11.8v-8.2c-7.9-5.2-13.6-15.5-13.6-24.6v-21.9
	c0-0.2,0.2-0.4,0.4-0.5c5.5-0.7,10.1-5.5,11.8-12.2c0-0.2,0.2-0.3,0.4-0.3c0.2,0,0.4,0,0.5,0.2c4.3,6.1,13,10,22.8,10
	c8.8,0,11.9-0.8,13.2-3.3c0.1-0.2,0.3-0.3,0.5-0.2c0.2,0,0.4,0.2,0.4,0.4v0.2v27.7c0,8.3-4.3,19.7-13.6,25.2v7.6
	C393.5,232.7,390,239.6,382.1,239.6z M358.1,173.5V195c0,8.9,5.6,18.9,13.4,23.9c0.1,0.1,0.2,0.2,0.2,0.4v8.5
	c0,4.4,2.8,10.9,10.3,10.9c7.2,0,10.5-6.4,10.5-10.9v-7.9c0-0.2,0.1-0.3,0.2-0.4c8.8-5.1,13.4-16.2,13.4-24.5v-26.4
	c-2.1,2.1-6.1,2.6-13.2,2.6c-9.6,0-18.3-3.6-23-9.6C368.1,168.1,363.6,172.6,358.1,173.5z"/>
<g id="XMLID_4515_">
	<path id="XMLID_2537_" class="st5" d="M387.2,204c0,0-2.1,2.4-4.7,2.4s-4.7-2.4-4.7-2.4s2.1,0.3,4.7,0.3
		C385.1,204.3,387.2,204,387.2,204z"/>
</g>
<g id="XMLID_4513_">
	<path id="XMLID_2536_" class="st5" d="M382.7,197.5L382.7,197.5c-0.8,0-1.5-0.3-1.9-0.8c-0.3-0.4-0.4-0.9-0.2-1.4l0.4,0.1
		c-0.1,0.4-0.1,0.7,0.1,1c0.3,0.4,0.8,0.6,1.4,0.6c0.7,0,1.4-0.2,1.7-0.7c0.2-0.3,0.2-0.6,0.1-1l0.4-0.2c0.3,0.7,0.1,1.2-0.1,1.5
		C384.4,197.1,383.6,197.5,382.7,197.5z"/>
</g>
<path id="XMLID_2535_" class="st6" d="M434.8,250.8v56.1c0,2.9-2.4,5.3-5.3,5.3h-95.1c-2.9,0-5.3-2.4-5.3-5.3v-56.2
	c0-2.9,2.4-5.3,5.3-5.3h95.1C432.5,245.5,434.8,247.9,434.8,250.8"/>
<path id="XMLID_2533_" class="st7" d="M434.8,300.8v6.1c0,2.9-2.4,5.3-5.3,5.3h-95.1c-2.9,0-5.3-2.4-5.3-5.3v-6.2L434.8,300.8z"/>
<path id="XMLID_2524_" class="st5" d="M329.2,280c-0.6,0-1.1-0.5-1.1-1.1v-11.1c0-0.6,0.6-1.1,1.1-1.1c0.6,0,1.1,0.5,1.1,1.1v11
	C330.3,279.5,329.8,280,329.2,280"/>
<path id="XMLID_2521_" class="st5" d="M429.6,313.4h-95.2c-3.5,0-6.4-2.9-6.4-6.4v-21.3c0-0.6,0.6-1.1,1.1-1.1
	c0.6,0,1.1,0.5,1.1,1.1V307c0,2.3,1.9,4.2,4.2,4.2h95.2c2.3,0,4.2-1.9,4.2-4.2v-56.2c0-2.3-1.9-4.2-4.2-4.2h-95.2
	c-2.3,0-4.2,1.9-4.2,4.2v11c0,0.6-0.5,1.1-1.1,1.1s-1.1-0.5-1.1-1.1v-11c0-3.5,2.9-6.4,6.4-6.4h95.1c3.5,0,6.4,2.9,6.4,6.4v56.1
	C436,310.4,433.1,313.4,429.6,313.4"/>
<path id="XMLID_4505_" class="st8" d="M427.6,268.7c-0.5,0-0.9-0.4-0.9-0.9v-10.1c0-2.4-2-4.4-4.4-4.4h-11.4c-0.5,0-0.9-0.4-0.9-0.9
	s0.4-0.9,0.9-0.9h11.5c3.4,0,6.1,2.8,6.1,6.1v10.2C428.6,268.2,428.1,268.7,427.6,268.7 M404.7,253.3h-7.9c-0.5,0-0.9-0.4-0.9-0.9
	s0.4-0.9,0.9-0.9h7.9c0.5,0,0.9,0.4,0.9,0.9C405.6,252.8,405.2,253.3,404.7,253.3 M385,283.3c4.2,5,1,7.2-3,7.2s-7.2-3.2-7.2-7.2
	s3.2-7.2,7.2-7.2S387.9,279.7,385,283.3"/>
<path id="XMLID_4502_" class="st5" d="M382,277.2c-3.4,0-6.1,2.7-6.1,6.1s2.7,6.1,6.1,6.1c1.9,0,3.4-0.6,3.7-1.4
	c0.4-0.9-0.1-2.3-1.6-4c-0.3-0.4-0.4-1,0-1.4c1.1-1.4,1.4-2.8,0.9-3.8C384.6,277.8,383.4,277.2,382,277.2 M382,291.6
	c-4.6,0-8.3-3.7-8.3-8.3s3.7-8.3,8.3-8.3c2.3,0,4.2,1.1,5,2.8c0.8,1.6,0.6,3.6-0.6,5.5c1.6,2.2,2.1,4.1,1.4,5.6
	C387,290.6,384.8,291.6,382,291.6"/>
<path id="XMLID_2379_" class="st5" d="M380.9,272.9c-0.6,0-1.1-0.5-1.1-1.1c0-0.1,0-0.2,0.1-0.3c0.1-0.1,1-3.5,3.8-4.3
	c0.6-0.2,1.2,0.2,1.4,0.8c0.1,0.6-0.2,1.2-0.7,1.3c-1.6,0.5-2.3,2.7-2.3,2.8C381.8,272.6,381.4,272.9,380.9,272.9"/>
<g id="XMLID_2779_">
	<path id="XMLID_2306_" class="st5" d="M365.1,183.1c-0.2,0-0.5-0.1-0.6-0.3c-0.4-0.4-0.4-0.9,0-1.3c1.2-1.3,2.8-1.9,4.4-1.8
		c1.3,0.1,2.4,0.8,3.1,1.8c0.3,0.4,0.1,1-0.3,1.3s-1,0.1-1.3-0.3c-0.4-0.6-1-0.9-1.7-1c-1-0.1-2.1,0.3-2.9,1.2
		C365.6,183,365.4,183.1,365.1,183.1z"/>
</g>
<g id="XMLID_2661_">
	<path id="XMLID_2305_" class="st5" d="M400.5,183.1c-0.2,0-0.5-0.1-0.7-0.3c-0.8-0.8-1.9-1.3-3.1-1.2c-0.9,0.1-1.7,0.4-2.2,1.1
		c-0.3,0.4-0.9,0.5-1.3,0.2s-0.5-0.9-0.2-1.3c0.8-1.1,2.1-1.7,3.6-1.8c1.7-0.1,3.4,0.6,4.5,1.8c0.4,0.4,0.3,1,0,1.3
		C400.9,183,400.7,183.1,400.5,183.1z"/>
</g>
<path id="XMLID_4444_" class="st3" d="M191.3,263c0-19.7,21.2-35.6,47.4-35.6c26.2,0,47.4,16,47.4,35.6"/>
<path id="XMLID_2928_" class="st6" d="M291,252.9V309c0,2.9-2.4,5.3-5.3,5.3h-95.1c-2.9,0-5.3-2.4-5.3-5.3v-56.2
	c0-2.9,2.4-5.3,5.3-5.3h95.1C288.6,247.6,291,250,291,252.9"/>
<path id="XMLID_2892_" class="st5" d="M185.3,282.1c-0.6,0-1.1-0.5-1.1-1.1v-11.2c0-0.6,0.6-1.1,1.1-1.1s1.1,0.5,1.1,1.1v11.1
	C186.5,281.6,186,282.1,185.3,282.1"/>
<path id="XMLID_2891_" class="st5" d="M285.7,315.5h-95.1c-3.5,0-6.4-2.9-6.4-6.4v-21.3c0-0.6,0.6-1.1,1.1-1.1s1.1,0.5,1.1,1.1v21.3
	c0,2.3,1.9,4.2,4.2,4.2h95.2c2.3,0,4.2-1.9,4.2-4.2v-56.2c0-2.3-1.9-4.2-4.2-4.2h-95.1c-2.3,0-4.2,1.9-4.2,4.2V264
	c0,0.6-0.5,1.1-1.1,1.1c-0.6,0-1.1-0.5-1.1-1.1v-11.1c0-3.5,2.9-6.4,6.4-6.4h95.1c3.5,0,6.4,2.9,6.4,6.4V309
	C292.1,312.6,289.3,315.5,285.7,315.5"/>
<path id="XMLID_2772_" class="st8" d="M283.8,270.8c-0.5,0-0.9-0.4-0.9-0.9v-10.1c0-2.4-2-4.4-4.4-4.4h-11.4c-0.5,0-0.9-0.4-0.9-0.9
	s0.4-0.9,0.9-0.9h11.4c3.4,0,6.1,2.8,6.1,6.1v10.1C284.7,270.3,284.3,270.8,283.8,270.8 M260.9,255.4H253c-0.5,0-0.9-0.4-0.9-0.9
	s0.4-0.9,0.9-0.9h7.9c0.5,0,0.9,0.4,0.9,0.9C261.8,254.9,261.4,255.4,260.9,255.4 M241.2,285.4c4.2,5,1,7.2-3,7.2s-7.2-3.2-7.2-7.2
	s3.2-7.2,7.2-7.2S244.1,281.8,241.2,285.4"/>
<path id="XMLID_2372_" class="st5" d="M238.2,279.3c-3.4,0-6.1,2.7-6.1,6.1s2.7,6.1,6.1,6.1c1.9,0,3.4-0.6,3.7-1.4
	c0.4-0.9-0.1-2.3-1.6-4c-0.3-0.4-0.4-1,0-1.4c1.1-1.4,1.4-2.8,0.9-3.8C240.8,279.9,239.6,279.3,238.2,279.3 M238.2,293.7
	c-4.6,0-8.3-3.7-8.3-8.3c0-4.6,3.7-8.3,8.3-8.3c2.3,0,4.2,1.1,5,2.8c0.8,1.6,0.6,3.6-0.6,5.5c1.6,2.2,2.1,4.1,1.4,5.6
	C243.1,292.8,241,293.7,238.2,293.7"/>
<path id="XMLID_2371_" class="st5" d="M237.1,275c-0.6,0-1.1-0.5-1.1-1.1c0-0.1,0-0.2,0.1-0.3c0.1-0.1,1-3.5,3.8-4.3
	c0.6-0.2,1.2,0.2,1.4,0.8c0.1,0.6-0.2,1.2-0.7,1.3c-1.6,0.5-2.3,2.7-2.3,2.8C238,274.7,237.6,275,237.1,275"/>
<path id="XMLID_4490_" class="st9" d="M238.3,240.8c7.2,0,10.5-6.4,10.5-10.9V222c0-0.2,0.1-0.3,0.2-0.4c0.6-0.3,1.2-0.7,1.7-1.1
	c-3.8,0.9-7.8,1.4-12,1.4c-4,0-7.9-0.5-11.5-1.3c0.2,0.1,0.4,0.3,0.6,0.4c0.1,0.1,0.2,0.2,0.2,0.4v8.5
	C227.9,234.3,230.7,240.8,238.3,240.8z"/>
<path id="XMLID_4447_" class="st3" d="M41.8,260.9c0-19.7,21.2-35.6,47.4-35.6s47.4,16,47.4,35.6"/>
<path id="XMLID_4443_" class="st6" d="M141.5,250.8v56.1c0,2.9-2.4,5.3-5.3,5.3H41.1c-2.9,0-5.3-2.4-5.3-5.3v-56.2
	c0-2.9,2.4-5.3,5.3-5.3h95.1C139.2,245.5,141.5,247.9,141.5,250.8"/>
<path id="XMLID_4441_" class="st5" d="M35.9,280c-0.6,0-1.1-0.5-1.1-1.1v-11.1c0-0.6,0.6-1.1,1.1-1.1c0.6,0,1.1,0.5,1.1,1.1v11
	C37,279.5,36.5,280,35.9,280"/>
<path id="XMLID_3245_" class="st5" d="M136.2,313.4H41.1c-3.5,0-6.4-2.9-6.4-6.4v-21.3c0-0.6,0.6-1.1,1.1-1.1c0.6,0,1.1,0.5,1.1,1.1
	V307c0,2.3,1.9,4.2,4.2,4.2h95.2c2.3,0,4.2-1.9,4.2-4.2v-56.2c0-2.3-1.9-4.2-4.2-4.2H41.1c-2.3,0-4.2,1.9-4.2,4.2v11
	c0,0.6-0.5,1.1-1.1,1.1s-1.1-0.5-1.1-1.1v-11c0-3.5,2.9-6.4,6.4-6.4h95.1c3.5,0,6.4,2.9,6.4,6.4v56.1
	C142.6,310.4,139.8,313.4,136.2,313.4"/>
<path id="XMLID_3078_" class="st8" d="M134.3,268.7c-0.5,0-0.9-0.4-0.9-0.9v-10.1c0-2.4-2-4.4-4.4-4.4h-11.4c-0.5,0-0.9-0.4-0.9-0.9
	s0.4-0.9,0.9-0.9H129c3.4,0,6.1,2.8,6.1,6.1v10.2C135.2,268.2,134.8,268.7,134.3,268.7 M111.4,253.3h-7.9c-0.5,0-0.9-0.4-0.9-0.9
	s0.4-0.9,0.9-0.9h7.9c0.5,0,0.9,0.4,0.9,0.9C112.3,252.8,111.9,253.3,111.4,253.3 M91.7,283.3c4.2,5,1,7.2-3,7.2s-7.2-3.2-7.2-7.2
	s3.2-7.2,7.2-7.2S94.6,279.7,91.7,283.3"/>
<path id="XMLID_2361_" class="st5" d="M88.7,277.2c-3.4,0-6.1,2.7-6.1,6.1s2.7,6.1,6.1,6.1c1.9,0,3.4-0.6,3.7-1.4
	c0.4-0.9-0.1-2.3-1.6-4c-0.3-0.4-0.4-1,0-1.4c1.1-1.4,1.4-2.8,0.9-3.8C91.3,277.8,90.1,277.2,88.7,277.2 M88.7,291.6
	c-4.6,0-8.3-3.7-8.3-8.3s3.7-8.3,8.3-8.3c2.3,0,4.2,1.1,5,2.8c0.8,1.6,0.6,3.6-0.6,5.5c1.6,2.2,2.1,4.1,1.4,5.6
	C93.6,290.6,91.5,291.6,88.7,291.6"/>
<path id="XMLID_2360_" class="st5" d="M87.6,272.9c-0.6,0-1.1-0.5-1.1-1.1c0-0.1,0-0.2,0.1-0.3c0.1-0.1,1-3.5,3.8-4.3
	c0.6-0.2,1.2,0.2,1.4,0.8c0.1,0.6-0.2,1.2-0.7,1.3c-1.6,0.5-2.3,2.7-2.3,2.8C88.5,272.6,88.1,272.9,87.6,272.9"/>
<path id="XMLID_2358_" class="st10" d="M88.8,238.7c7.2,0,10.5-6.4,10.5-10.9v-7.9c0-0.2,0.1-0.3,0.2-0.4c0.6-0.3,1.2-0.7,1.7-1.1
	c-3.8,0.9-7.8,1.4-12,1.4c-4,0-7.9-0.5-11.5-1.3c0.2,0.1,0.4,0.3,0.6,0.4c0.1,0.1,0.2,0.2,0.2,0.4v8.5
	C78.4,232.2,81.2,238.7,88.8,238.7z"/>
<g id="XMLID_4567_">
	<g id="XMLID_4572_">
		<path id="XMLID_4518_" class="st11" d="M270.6,185.3c0,3.3-2.2,6-4.8,6s-4.8-2.7-4.8-6s2.2-4.9,4.8-4.9S270.6,182,270.6,185.3z"/>
	</g>
	<g id="XMLID_4568_">
		<path id="XMLID_4569_" class="st5" d="M265.8,192.1c-3.1,0-5.6-3-5.6-6.8c0-3.5,2.2-5.7,5.6-5.7s5.6,2.2,5.6,5.7
			C271.4,189,268.9,192.1,265.8,192.1z M265.8,181.1c-2.6,0-4.1,1.6-4.1,4.2c0,2.9,1.8,5.2,4.1,5.2c2.3,0,4.1-2.4,4.1-5.2
			C269.8,182.7,268.3,181.1,265.8,181.1z"/>
	</g>
</g>
<g id="XMLID_4560_">
	<g id="XMLID_4565_">
		<path id="XMLID_4512_" class="st11" d="M216.2,185.3c0,3.3-2.2,6-4.8,6s-4.8-2.7-4.8-6s2.2-4.9,4.8-4.9S216.2,182,216.2,185.3z"/>
	</g>
	<g id="XMLID_4561_">
		<path id="XMLID_4562_" class="st5" d="M211.3,192.1c-3.1,0-5.6-3-5.6-6.8c0-3.5,2.2-5.7,5.6-5.7s5.6,2.2,5.6,5.7
			C216.9,189,214.4,192.1,211.3,192.1z M211.3,181.1c-2.6,0-4.1,1.6-4.1,4.2c0,2.9,1.8,5.2,4.1,5.2c2.2,0,4.1-2.4,4.1-5.2
			C215.4,182.7,213.9,181.1,211.3,181.1z"/>
	</g>
</g>
<g id="XMLID_4558_">
	<path id="XMLID_4509_" class="st4" d="M266,175.6c0,32.5-11.3,46.4-27.4,46.4c-16.1,0-27.9-13-27.9-46.4
		c0-20.1,11.7-24.3,27.9-24.3C254.8,151.3,266,155.6,266,175.6z"/>
</g>
<g id="XMLID_4554_">
	<path id="XMLID_4555_" class="st5" d="M238.5,222.8c-8.8,0-15.8-3.7-20.6-11c-5.3-8-8-20.1-8-36.2c0-22.1,14.5-25.1,28.6-25.1
		c14.6,0,28.2,3,28.2,25.1C266.7,206,256.7,222.8,238.5,222.8z M238.5,152.1c-9.1,0-15.3,1.4-19.5,4.5c-5.1,3.7-7.6,9.9-7.6,19
		c0,37.7,14.7,45.6,27.1,45.6c17.2,0,26.6-16.2,26.6-45.6C265.2,156.1,254.5,152.1,238.5,152.1z"/>
</g>
<g id="XMLID_4552_">
	<path id="XMLID_4506_" class="st12" d="M238,191.7c10.8,0,13.3,6.7,18.3,6.7s8.5-7.2,8.5-7.2s3.2,37-25.8,37s-26.9-36.6-26.9-36.6
		s1.4,6.7,7.6,6.7C225.9,198.3,226.3,191.7,238,191.7z"/>
</g>
<g id="XMLID_4548_">
	<path id="XMLID_4549_" class="st5" d="M238.9,229.1c-7.7,0-13.9-2.5-18.5-7.4c-5.3-5.6-7.5-13.5-8.4-19.1c-1-6-0.7-10.7-0.7-10.9
		c0-0.4,0.3-0.7,0.7-0.7s0.7,0.2,0.8,0.6c0.1,0.2,1.3,6.1,6.8,6.1c2.4,0,3.8-1.1,5.6-2.4c2.6-1.9,5.8-4.3,12.7-4.3
		c6.7,0,10.3,2.5,13.2,4.4c1.9,1.3,3.3,2.3,5.1,2.3c4.5,0,7.8-6.7,7.8-6.8c0.2-0.3,0.5-0.5,0.8-0.4c0.3,0.1,0.6,0.3,0.6,0.7
		c0,0.2,0.4,4.9-0.4,11.1c-0.8,5.7-2.8,13.7-8,19.4C252.7,226.6,246.5,229.1,238.9,229.1z M212.8,195.5c0.2,5.9,1.7,17.7,8.7,25.1
		c4.3,4.6,10.2,6.9,17.4,6.9c7.1,0,12.9-2.3,17.1-6.9c7.4-8.1,8.2-21.2,8.1-26.7c-1.5,2.3-4.3,5.3-7.8,5.3c-2.3,0-4-1.2-6-2.6
		c-2.7-1.9-6.1-4.2-12.3-4.2c-6.5,0-9.3,2.1-11.8,4c-1.9,1.4-3.7,2.7-6.5,2.7C216.1,199.2,214,197.3,212.8,195.5z"/>
</g>
<g id="XMLID_4541_">
	<g id="XMLID_4546_">
		<path id="XMLID_4501_" class="st11" d="M248.1,204.1c-1.1,3.6-5.2,3.5-9.5,3.5c-4.3,0-9.5,0.5-10.5-3.2c-1.2-4.1,6.1-4.5,10.5-4.5
			S249.3,200.2,248.1,204.1z"/>
	</g>
	<g id="XMLID_4542_">
		<path id="XMLID_4543_" class="st5" d="M235.9,208.4c-3.6,0-7.6-0.3-8.6-3.8c-0.3-1.1-0.1-2.1,0.5-2.9c1.3-1.8,4.8-2.6,10.8-2.6
			c4.1,0,8.4,0.3,9.9,2.4c0.4,0.5,0.8,1.5,0.4,2.8c-1.3,4.1-5.7,4.1-10,4.1h-0.3c-0.4,0-0.9,0-1.3,0
			C236.8,208.4,236.3,208.4,235.9,208.4z M238.5,200.7c-6.7,0-8.9,1.1-9.6,2c-0.3,0.4-0.4,0.9-0.2,1.5c0.6,2.2,3.2,2.7,7.1,2.7
			c0.4,0,0.9,0,1.3,0s0.9,0,1.3,0h0.3c4.7,0,7.6-0.2,8.5-3c0.3-0.8,0-1.2-0.1-1.4C246,200.7,240.4,200.7,238.5,200.7z"/>
	</g>
</g>
<g id="XMLID_4539_">
	<path id="XMLID_4498_" class="st5" d="M221.3,183.1c-0.2,0-0.4-0.1-0.6-0.3c-0.3-0.3-0.3-0.8,0.1-1.1c1.1-1,2.7-1.5,4.2-1.4
		c1.2,0.1,2.2,0.6,2.8,1.5c0.3,0.3,0.2,0.8-0.2,1.1c-0.3,0.3-0.8,0.2-1.1-0.2c-0.4-0.5-1-0.8-1.7-0.8c-1.1-0.1-2.2,0.3-3,1
		C221.7,183,221.5,183.1,221.3,183.1z"/>
</g>
<g id="XMLID_4537_">
	<path id="XMLID_4497_" class="st5" d="M255.3,183.1c-0.2,0-0.4-0.1-0.5-0.2c-0.8-0.7-2-1.1-3.2-1c-0.9,0.1-1.7,0.4-2.2,0.9
		c-0.3,0.3-0.8,0.3-1.1,0.1c-0.3-0.3-0.3-0.8-0.1-1.1c0.8-0.9,1.9-1.4,3.3-1.4c1.6-0.1,3.1,0.4,4.3,1.4c0.3,0.3,0.3,0.8,0.1,1.1
		C255.7,183,255.5,183.1,255.3,183.1z"/>
</g>
<g id="XMLID_4535_">
	<path id="XMLID_4496_" class="st12" d="M231.2,135.9c10.2-2.8,21,4.2,25.9,10.6c4.1,5.3,9,3.8,12.8,9.6c3.8,5.8,1.3,16.6-1.5,21.2
		c-2.7,4.6-2.7,4.6-2.7,4.6s-3.6-14.2-9.1-16.6s-5.3,3.4-17.5,2.4c-12.2-1-16.3-8.2-19.3-7.2c-2.9,1-2.5,6.3-5.1,11.5
		c-2.5,5.3-4,9.9-4,9.9s-8.1-15.5-4.8-24.3c2.5-6.7,7.2-4.3,10.6-8.7C220,144.6,224,137.9,231.2,135.9z"/>
</g>
<g id="XMLID_4531_">
	<path id="XMLID_4532_" class="st5" d="M210.9,182.6c-0.3,0-0.5-0.2-0.7-0.4c-0.3-0.6-8.2-15.9-4.9-24.9c1.6-4.2,4-5.1,6.3-6
		c1.6-0.6,3.1-1.2,4.4-2.8c0.5-0.6,1-1.3,1.5-2c3.1-4.3,7.1-9.6,13.5-11.3c1.6-0.4,3.3-0.6,5-0.6c8.8,0,17.3,5.8,21.8,11.5
		c1.9,2.4,3.9,3.3,6,4.3c2.4,1.1,4.8,2.2,6.9,5.4c4.1,6.2,1.3,17.4-1.4,22l-2.7,4.6c-0.2,0.3-0.5,0.4-0.8,0.4
		c-0.3,0-0.6-0.3-0.6-0.6c-1-3.8-4.4-14.2-8.6-16.1c-0.8-0.4-1.5-0.5-2.1-0.5c-1,0-1.8,0.4-3,0.9c-1.9,0.9-4.5,2.2-9.5,2.2
		c-0.9,0-1.8,0-2.7-0.1c-7.6-0.6-12.2-3.6-15.2-5.6c-1.7-1.1-2.9-1.9-3.7-1.7c-1.4,0.4-1.9,2.3-2.5,5c-0.5,1.9-1,4-2.1,6.2
		c-2.5,5.2-4,9.7-4,9.8C211.5,182.4,211.2,182.6,210.9,182.6L210.9,182.6z M254.3,163.9c0.9,0,1.8,0.2,2.8,0.7
		c4.6,2,7.8,11.4,9,15.4l1.8-3c2.5-4.1,5.1-14.7,1.5-20.3c-1.9-2.8-4-3.8-6.2-4.8c-2.2-1-4.4-2-6.5-4.7
		c-4.1-5.3-12.3-10.9-20.6-10.9c-1.6,0-3.1,0.2-4.6,0.6c-5.9,1.6-9.6,6.6-12.6,10.7c-0.5,0.7-1,1.4-1.5,2c-1.5,2-3.4,2.7-5,3.3
		c-2.2,0.8-4.1,1.6-5.5,5.1c-2.5,6.8,2.1,17.9,4,22c0.7-1.8,1.9-4.9,3.4-8.2c1-2,1.5-4.1,2-5.9c0.7-2.9,1.4-5.3,3.5-6.1
		c0.3-0.1,0.5-0.1,0.8-0.1c1.3,0,2.5,0.8,4.2,2c2.9,1.9,7.3,4.8,14.5,5.3c0.9,0.1,1.8,0.1,2.6,0.1c4.6,0,6.9-1.1,8.8-2
		C251.8,164.4,252.9,163.9,254.3,163.9z"/>
</g>
<g id="XMLID_4529_">
	<path id="XMLID_4493_" class="st5" d="M238.2,193.7c-0.3,0-0.6,0-0.9-0.1c-2-0.3-2.8-1.8-2.9-1.9c-0.2-0.4-0.1-0.8,0.3-1
		s0.8-0.1,1,0.3c0,0,0.5,0.9,1.7,1.1c1.2,0.2,2.2-0.1,2.6-0.7c0.3-0.4,0.2-1-0.1-1.5c-1.1-1.7-2.9-7.5-2.4-9.4
		c0.1-0.4,0.5-0.7,0.9-0.5c0.4,0.1,0.7,0.5,0.5,0.9c-0.4,1.3,1.1,6.5,2.2,8.2c0.7,1,0.7,2.2,0.1,3.1
		C240.7,193.2,239.6,193.7,238.2,193.7z"/>
</g>
<g id="XMLID_4527_">
	<path id="XMLID_4492_" class="st5" d="M238.2,205.5c-2.2,0-4-0.8-4.9-2.1c-0.2-0.4-0.2-0.8,0.2-1.1c0.3-0.2,0.8-0.2,1.1,0.2
		c0.6,0.9,2,1.4,3.6,1.4l0,0c1.9,0,3.7-0.7,4.3-1.6c0.2-0.4,0.7-0.4,1.1-0.2c0.4,0.2,0.4,0.7,0.2,1.1
		C242.7,204.8,240.2,205.5,238.2,205.5L238.2,205.5z"/>
</g>
<g id="XMLID_4579_">
	<g id="XMLID_4584_">
		<path id="XMLID_4544_" class="st11" d="M64.3,186.1c0,3.6-2.3,6.4-5.2,6.4s-5.2-2.9-5.2-6.4c0-3.6,2.3-5.3,5.2-5.3
			S64.3,182.5,64.3,186.1z"/>
	</g>
	<g id="XMLID_4580_">
		<path id="XMLID_4581_" class="st5" d="M59.1,193.3c-3.3,0-6-3.3-6-7.3c0-3.7,2.4-6.1,6-6.1s6,2.4,6,6.1
			C65.1,190.1,62.4,193.3,59.1,193.3z M59.1,181.6c-2.7,0-4.4,1.7-4.4,4.5c0,3.1,2,5.6,4.4,5.6c2.4,0,4.4-2.5,4.4-5.6
			C63.4,183.3,61.8,181.6,59.1,181.6z"/>
	</g>
</g>
<g id="XMLID_4577_">
	<path id="XMLID_4536_" class="st4" d="M78.2,222.2c-9.1-3.2-12.9-12.4-16.3-25.3c-2-7.5-2.8-12.6-2.8-21.9
		c0-22.5,11.6-30.7,30.1-30.7s30.9,4.7,30.9,27.2c0,33.7-11,53.4-30.9,53.4"/>
</g>
<g id="XMLID_4575_">
	<path id="XMLID_4534_" class="st5" d="M89.2,225.7c-0.5,0-0.8-0.4-0.8-0.8c0-0.5,0.4-0.8,0.8-0.8c19.1,0,30.1-19.2,30.1-52.6
		c0-21.9-12-26.4-30.1-26.4c-9.6,0-16.6,2.2-21.4,6.7c-5.2,4.9-7.9,12.7-7.9,23.2c0,9.5,0.9,14.5,2.8,21.7
		c4.6,17.6,9.5,22.5,15.8,24.7c0.4,0.2,0.7,0.6,0.5,1s-0.6,0.7-1,0.5c-9.2-3.2-13.3-12.3-16.8-25.8c-1.9-7.3-2.8-12.5-2.8-22.1
		c0-21.2,10.1-31.6,30.9-31.6c16.5,0,31.8,3.4,31.8,28C120.9,205.9,109.3,225.7,89.2,225.7z"/>
</g>
<g id="XMLID_4573_">
	<path id="XMLID_4533_" class="st5" d="M89.5,196c-0.3,0-0.7,0-1-0.1c-2.2-0.3-3.2-2.1-3.2-2.2c-0.2-0.4-0.1-0.9,0.3-1.1
		c0.4-0.2,0.9-0.1,1.1,0.3c0,0,0.6,1.1,2,1.3c1.4,0.2,2.5-0.1,3-0.8c0.3-0.5,0.3-1.2-0.1-1.9c-1.2-2-3.3-8.7-2.7-11
		c0.1-0.4,0.6-0.7,1-0.6s0.7,0.6,0.6,1c-0.4,1.6,1.3,7.8,2.5,9.8c0.7,1.2,0.8,2.6,0.1,3.6C92.4,195.4,91.1,196,89.5,196z"/>
</g>
<g id="XMLID_4570_">
	<path id="XMLID_4530_" class="st5" d="M72.9,180.9c-0.2,0-0.4-0.1-0.6-0.2c-0.3-0.3-0.3-0.8,0-1.2c1.1-1.1,2.6-1.8,4-1.6
		c1.2,0.1,2.2,0.7,2.8,1.7c0.2,0.4,0.1,0.9-0.3,1.1s-0.9,0.1-1.1-0.3c-0.3-0.5-0.9-0.9-1.6-0.9c-0.9-0.1-2,0.3-2.7,1.1
		C73.3,180.8,73.1,180.9,72.9,180.9z"/>
</g>
<g id="XMLID_4564_">
	<path id="XMLID_4528_" class="st5" d="M105.4,180.9c-0.2,0-0.4-0.1-0.6-0.3c-0.7-0.8-1.8-1.2-2.9-1.1c-0.9,0-1.6,0.4-2.1,1
		c-0.3,0.4-0.8,0.4-1.2,0.2c-0.4-0.3-0.4-0.8-0.2-1.2c0.7-1,1.9-1.6,3.3-1.7c1.5-0.1,3.1,0.5,4.1,1.6c0.3,0.3,0.3,0.8,0,1.2
		C105.9,180.8,105.7,180.9,105.4,180.9z"/>
</g>
<g id="XMLID_4559_">
	<path id="XMLID_4526_" class="st5" d="M88.8,206.4c-2.1,0-3.9-0.8-4.8-2.1c-0.3-0.4-0.2-0.9,0.2-1.1c0.4-0.3,0.9-0.2,1.1,0.2
		c0.6,0.9,2,1.4,3.7,1.3c1.8-0.1,3.5-0.8,4.1-1.8c0.2-0.4,0.7-0.5,1.1-0.3c0.4,0.2,0.5,0.7,0.3,1.1c-0.9,1.5-3,2.5-5.5,2.6
		C89,206.4,88.9,206.4,88.8,206.4z"/>
</g>
<g id="XMLID_4550_">
	<g id="XMLID_4556_">
		<path id="XMLID_4524_" class="st11" d="M117.3,194.3c4.4,0.3,7.4-3.9,7.6-7.7c0.2-3.7-3.5-5.2-6.5-4.9"/>
	</g>
	<g id="XMLID_4551_">
		<path id="XMLID_4520_" class="st5" d="M117.8,195.1c-0.2,0-0.4,0-0.5,0c-0.5,0-0.8-0.4-0.8-0.9s0.4-0.8,0.9-0.8
			c1.9,0.1,3.3-0.7,4.1-1.4c1.5-1.3,2.5-3.4,2.7-5.5c0.1-1.1-0.3-2.1-1-2.8c-1-1-2.8-1.5-4.5-1.2c-0.5,0.1-0.9-0.3-0.9-0.7
			c-0.1-0.5,0.3-0.9,0.7-0.9c2.2-0.3,4.5,0.4,5.9,1.7c1.1,1,1.6,2.4,1.6,4c-0.1,2.5-1.4,5-3.2,6.6
			C121.2,194.5,119.5,195.1,117.8,195.1z"/>
	</g>
</g>
<path id="XMLID_4519_" class="st13" d="M119.2,181.8c4.4-13.1,4.4-24.2,2.1-34.9c-1.2-5.6-3.7-10-3.7-10c-5.7,1.3-7.3-2.1-22.7-4.2
	c-11.1-1.5-16.2,2-18.1,4.1c0,0-3.6-1.8-10.9,1.4c-6.6,2.9-12.3,10.5-8.3,34.3c1.2,9.6,4.4,18.3,4.4,18.3s-1.5-18.9,1.5-26.4
	c0.1-0.4,0.3-0.7,0.5-1l1.5-2.2c4.1-4.7,11.7-5.4,14.6-2.6c3.4,3.3,9.2,2.9,9.2,2.9s5.8,0.4,9.2-2.9c3.4-3.3,13.6-1.7,16.5,5.8
	c2.9,7.5,1.5,26.4,1.5,26.4S117.9,187.1,119.2,181.8z"/>
</svg>
