<?xml version="1.0" encoding="utf-8"?>
<!-- Generator: Adobe Illustrator 20.1.0, SVG Export Plug-In . SVG Version: 6.00 Build 0)  -->
<svg version="1.1" id="Calque_1" xmlns="http://www.w3.org/2000/svg" xmlns:xlink="http://www.w3.org/1999/xlink" x="0px" y="0px"
	 viewBox="0 0 1388 273" style="enable-background:new 0 0 1388 273;" xml:space="preserve">
<style type="text/css">
	.st0{fill:#093E5F;}
	.st1{fill:#B6C9D3;}
	.st2{fill:url(#SVGID_1_);}
	.st3{opacity:8.000000e-02;fill:#082F42;}
</style>
<g id="Calque_1_1_">
</g>
<g id="favicon">
</g>
<g id="main">
</g>
<g id="greyscale">
</g>
<g id="light-main">
</g>
<g id="green">
</g>
<g id="light-green">
</g>
<g id="orange">
</g>
<g id="deep_blue">
</g>
<g id="white">
</g>
<g>
	<g>
		<g>
			<g>
				<path class="st0" d="M295.1,213.5c-28.9,0-45.3-14.3-48.4-17.1V71l29.8-6.8v67.1c2.1-4.9,9.4-19.5,29.3-19.5
					c24.9,0,41.1,21.6,41.1,50.7C347,190.9,328.7,213.5,295.1,213.5z M297.4,135.8c-13.1,0-20.9,13.1-20.9,34.3v15
					c2.6,1.6,8.2,4.2,17.8,4.2c14.6,0,22.1-12.9,22.1-27.5C316.5,146.8,310.8,135.8,297.4,135.8z"/>
				<path class="st0" d="M415.8,213.2c-29.3,0-52.8-18.3-52.8-50.5c0-32.4,23.5-50.9,52.8-50.9c29.3,0,52.6,18.5,52.6,51.2
					C468.4,194.9,445.1,213.2,415.8,213.2z M415.5,135.5c-12.2,0-22.5,10.1-22.5,27.2c0,17.4,10.3,26.8,22.5,26.8
					c12.7,0,22.8-9.4,22.8-26.5C438.3,145.6,428.2,135.5,415.5,135.5z"/>
				<path class="st0" d="M537.2,213.2c-29.3,0-52.8-18.3-52.8-50.5c0-32.4,23.5-50.9,52.8-50.9c29.3,0,52.6,18.5,52.6,51.2
					C589.7,194.9,566.5,213.2,537.2,213.2z M536.9,135.5c-12.2,0-22.5,10.1-22.5,27.2c0,17.4,10.3,26.8,22.5,26.8
					c12.7,0,22.8-9.4,22.8-26.5C559.7,145.6,549.6,135.5,536.9,135.5z"/>
				<path class="st0" d="M640,211.8h-30.1V70.3l30.1-6.1V211.8z M641.9,155l27.2-41.6h35.5L674.3,155l39.9,56.8H678L641.9,155z"/>
				<path class="st0" d="M739.1,96.3c-9.6,0-17.1-5.4-17.1-14.3c0-8.9,7.5-14.1,17.1-14.1c9.6,0,17.1,5.2,17.1,14.1
					C756.2,90.9,748.7,96.3,739.1,96.3z M724,211.8v-98.4h30.3v98.4H724z"/>
				<path class="st0" d="M844.2,211.8v-53.5c0-14.3-4.5-22.1-16-22.1c-12,0-18.8,11.3-18.8,29.6v46h-30.1v-98.4h30.1v16.2
					c2.3-4,11.5-17.8,29.3-17.8c23.9,0,35.9,14.1,35.9,44.4v55.6H844.2z"/>
				<path class="st0" d="M898.3,234.6l15.3-20.7c3.5,2.6,15.5,10.6,27,10.6c9.9,0,22.8-3.5,22.8-23.2v-12c-2.6,2.8-9.2,15-28.9,15
					c-24.7,0-40.6-18.5-40.6-45.3c0-26.3,18.5-47.2,51.7-47.2c27.9,0,44.1,13.8,47.4,16.2v66.7c0,43.2-23.9,54.2-51.6,54.2
					C921,248.9,904.4,239.1,898.3,234.6z M943.1,181.3c12.2,0,20.2-11,20.2-29.3v-12.9c-2.6-1.4-8.5-3.8-17.1-3.8
					c-14.3,0-21.8,11-21.8,23.9C924.3,171.9,929.7,181.3,943.1,181.3z"/>
				<path class="st1" d="M1117.5,160.9c0,28.6-16.7,52.1-46.3,52.1c-12.7,0-23.9-4.9-23.9-4.9v34.3l-29.8,6.3c-0.2,0,0-36.2,0-135.2
					h29.6v17.1c2.6-5.4,10.6-18.8,28.6-18.8C1102,111.8,1117.5,131.5,1117.5,160.9z M1068,136.5c-12.7,0-20.9,12.2-20.9,35.7v12.2
					c2.8,1.4,8.9,5.2,18.1,5.2c14.8,0,22.1-12.9,22.1-28.2C1087.2,147.5,1081.8,136.5,1068,136.5z"/>
				<path class="st1" d="M1137.7,211.8V70.3l30.1-6.1v147.7H1137.7z"/>
				<path class="st1" d="M1221.5,113.5v53.8c0,14.3,3.8,22.1,15.5,22.1c12,0,18.5-11,18.5-29.6v-46.3h30.1v98.4h-30.1v-16
					c-2.3,4-10.8,17.6-29.1,17.6c-26.8,0-35.5-15.7-35.5-51.2v-48.8H1221.5z"/>
				<path class="st1" d="M1374.4,142.3c-4.2-3.1-17.8-8.2-28.6-8.2c-5.2,0-10.1,1.9-10.1,6.6c0,13.6,49.3,8,49.3,41.1
					c0,19.3-16.9,31.7-40.1,31.7c-19.5,0-37.1-9.6-43-13.4c4.9-6.8,11-15.3,14.3-20c3.1,2.1,16.4,10.3,28.4,10.3
					c7,0,10.6-3.5,10.6-8c0-14.8-48.6-8.2-48.6-41.8c0-18.3,14.3-28.9,37.8-28.9c17.6,0,31.7,6.6,34.5,8.7L1374.4,142.3z"/>
			</g>
		</g>
	</g>
	<g>
		<g>
			<g>
				<linearGradient id="SVGID_1_" gradientUnits="userSpaceOnUse" x1="104.0826" y1="62.0344" x2="104.0826" y2="223.0649">
					<stop  offset="0" style="stop-color:#0CE6F6"/>
					<stop  offset="1" style="stop-color:#29ABE2"/>
				</linearGradient>
				<path class="st2" d="M18.7,73.2c-9,5.2-14.5,14.7-14.5,25.1v81.8c0,10.3,5.5,19.9,14.5,25.1l70.9,40.9c9,5.2,20,5.2,29,0
					l70.9-40.9c9-5.2,14.5-14.7,14.5-25.1V98.2c0-10.3-5.5-19.9-14.5-25.1l-70.9-40.9c-9-5.2-20-5.2-29,0L18.7,73.2z M150.8,150.7
					c0,3.2-2.6,5.8-5.8,5.8h-18.7c-3.2,0-5.8,2.6-5.8,5.8v17.2c0,3.2-2.6,5.8-5.8,5.8H91.9c-3.2,0-5.8-2.6-5.8-5.8v-17.2
					c0-3.2-2.6-5.8-5.8-5.8H63.1c-3.2,0-5.8-2.6-5.8-5.8v-22.9c0-3.2,2.6-5.8,5.8-5.8h17.2c3.2,0,5.8-2.6,5.8-5.8V97.6
					c0-3.2,2.6-5.8,5.8-5.8h22.9c3.2,0,5.8,2.6,5.8,5.8v18.7c0,3.2,2.6,5.8,5.8,5.8H145c3.2,0,5.8,2.6,5.8,5.8V150.7z"/>
			</g>
		</g>
		<path class="st3" d="M204,98.2v83.5c0,7-2.6,12.4-7,17.5c-13-13.8-36.3-35.3-65.8-42.3H145c3.2,0,6-3.1,6-6.3V129c0-3.2-2.8-7-6-7
			h-15.1c30.1-7,53.7-29.4,66.9-43.3C201.2,83.8,204,91.3,204,98.2z"/>
		<path class="st3" d="M4,98.2v83.5c0,7,2.6,12.4,7,17.5C24,185.5,47.4,164,76.9,157H63.1c-3.2,0-6.1-3.1-6.1-6.3V129
			c0-3.2,2.9-7,6.1-7h15.1c-30.1-7-53.8-29.4-66.9-43.3C6.9,83.8,4,91.3,4,98.2z"/>
	</g>
</g>
</svg>
