<?xml version="1.0" encoding="utf-8"?>
<!-- Generator: Adobe Illustrator 20.1.0, SVG Export Plug-In . SVG Version: 6.00 Build 0)  -->
<svg version="1.1" id="Calque_1" xmlns="http://www.w3.org/2000/svg" xmlns:xlink="http://www.w3.org/1999/xlink" x="0px" y="0px"
	 viewBox="0 0 1390 273" style="enable-background:new 0 0 1390 273;" xml:space="preserve">
<style type="text/css">
	.st0{fill:#FFFFFF;}
	.st1{fill:#B6C9D3;}
	.st2{fill:url(#SVGID_1_);}
	.st3{opacity:0.3;fill:#FFFFFF;}
</style>
<g>
	<g>
		<g>
			<g>
				<path class="st0" d="M294.1,210.9c-29,0-45.5-14.4-48.5-17.2V67.9l29.9-6.8v67.4c2.1-5,9.4-19.6,29.5-19.6
					c25,0,41.2,21.7,41.2,50.9C346.1,188.3,327.8,210.9,294.1,210.9z M296.4,132.9c-13.2,0-21,13.2-21,34.4v15.1
					c2.6,1.7,8.2,4.2,17.9,4.2c14.6,0,22.2-13,22.2-27.6C315.5,144,309.9,132.9,296.4,132.9z"/>
				<path class="st0" d="M415.2,210.7c-29.5,0-53-18.4-53-50.7c0-32.5,23.6-51.1,53-51.1c29.5,0,52.8,18.6,52.8,51.4
					C468,192.3,444.7,210.7,415.2,210.7z M415,132.7c-12.3,0-22.6,10.1-22.6,27.3c0,17.4,10.4,26.9,22.6,26.9
					c12.7,0,22.9-9.4,22.9-26.6C437.8,142.8,427.7,132.7,415,132.7z"/>
				<path class="st0" d="M537,210.7c-29.5,0-53-18.4-53-50.7c0-32.5,23.6-51.1,53-51.1s52.8,18.6,52.8,51.4
					C589.8,192.3,566.5,210.7,537,210.7z M536.8,132.7c-12.3,0-22.6,10.1-22.6,27.3c0,17.4,10.4,26.9,22.6,26.9
					c12.7,0,22.9-9.4,22.9-26.6C559.7,142.8,549.5,132.7,536.8,132.7z"/>
				<path class="st0" d="M640.3,209.2h-30.2V67.1l30.2-6.1V209.2z M642.1,152.2l27.3-41.7h35.6l-30.4,41.7l40.1,57h-36.3
					L642.1,152.2z"/>
				<path class="st0" d="M739.7,93.3c-9.7,0-17.2-5.4-17.2-14.4c0-9,7.5-14.1,17.2-14.1c9.7,0,17.2,5.2,17.2,14.1
					C756.9,87.9,749.4,93.3,739.7,93.3z M724.6,209.2v-98.7H755v98.7H724.6z"/>
				<path class="st0" d="M845.3,209.2v-53.7c0-14.4-4.5-22.2-16-22.2c-12,0-18.9,11.3-18.9,29.7v46.2h-30.2v-98.7h30.2v16.3
					c2.4-4,11.5-17.9,29.5-17.9c24,0,36.1,14.1,36.1,44.5v55.9H845.3z"/>
				<path class="st0" d="M899.5,232.1l15.3-20.7c3.5,2.6,15.6,10.6,27.1,10.6c9.9,0,22.9-3.5,22.9-23.3v-12
					c-2.6,2.8-9.2,15.1-29,15.1c-24.7,0-40.8-18.6-40.8-45.5c0-26.4,18.6-47.4,51.8-47.4c28,0,44.3,13.9,47.6,16.3V192
					c0,43.4-24,54.4-51.8,54.4C922.3,246.5,905.6,236.6,899.5,232.1z M944.5,178.6c12.3,0,20.3-11.1,20.3-29.5v-13
					c-2.6-1.4-8.5-3.8-17.2-3.8c-14.4,0-21.9,11.1-21.9,24C925.6,169.2,931.1,178.6,944.5,178.6z"/>
				<path class="st1" d="M1119.6,158.1c0,28.8-16.7,52.3-46.4,52.3c-12.7,0-24-4.9-24-4.9v34.4l-29.9,6.4c-0.2,0,0-36.3,0-135.7
					h29.7v17.2c2.6-5.4,10.6-18.9,28.8-18.9C1104,108.9,1119.6,128.7,1119.6,158.1z M1069.9,133.6c-12.7,0-21,12.3-21,35.8v12.3
					c2.8,1.4,9,5.2,18.1,5.2c14.8,0,22.2-13,22.2-28.3C1089.2,144.7,1083.8,133.6,1069.9,133.6z"/>
				<path class="st1" d="M1139.8,209.2V67.1L1170,61v148.2H1139.8z"/>
				<path class="st1" d="M1224,110.5v54c0,14.4,3.8,22.2,15.6,22.2c12,0,18.6-11.1,18.6-29.7v-46.4h30.2v98.7h-30.2v-16
					c-2.4,4-10.8,17.7-29.2,17.7c-26.9,0-35.6-15.8-35.6-51.4v-49H1224z"/>
				<path class="st1" d="M1377.4,139.5c-4.2-3.1-17.9-8.2-28.8-8.2c-5.2,0-10.1,1.9-10.1,6.6c0,13.7,49.5,8,49.5,41.2
					c0,19.3-17,31.8-40.3,31.8c-19.6,0-37.2-9.7-43.1-13.4c5-6.8,11.1-15.3,14.4-20c3.1,2.1,16.5,10.4,28.5,10.4
					c7.1,0,10.6-3.5,10.6-8c0-14.8-48.8-8.2-48.8-41.9c0-18.4,14.4-29,37.9-29c17.7,0,31.8,6.6,34.6,8.7L1377.4,139.5z"/>
			</g>
		</g>
	</g>
	<g>
		<g>
			<g>
				<linearGradient id="SVGID_1_" gradientUnits="userSpaceOnUse" x1="102.3325" y1="58.8884" x2="102.3325" y2="220.5227">
					<stop  offset="0" style="stop-color:#BFF8FF"/>
					<stop  offset="1" style="stop-color:#94EBFF"/>
				</linearGradient>
				<path class="st2" d="M16.7,70c-9,5.2-14.5,14.8-14.5,25.2v82.1c0,10.4,5.5,20,14.5,25.2l71.1,41.1c9,5.2,20.1,5.2,29.1,0
					l71.1-41.1c9-5.2,14.5-14.8,14.5-25.2V95.2c0-10.4-5.5-20-14.5-25.2L116.9,29c-9-5.2-20.1-5.2-29.1,0L16.7,70z M149.3,147.9
					c0,3.2-2.6,5.8-5.8,5.8h-18.7c-3.2,0-5.8,2.6-5.8,5.8v17.3c0,3.2-2.6,5.8-5.8,5.8H90.1c-3.2,0-5.8-2.6-5.8-5.8v-17.3
					c0-3.2-2.6-5.8-5.8-5.8H61.2c-3.2,0-5.8-2.6-5.8-5.8V125c0-3.2,2.6-5.8,5.8-5.8h17.3c3.2,0,5.8-2.6,5.8-5.8V94.6
					c0-3.2,2.6-5.8,5.8-5.8h22.9c3.2,0,5.8,2.6,5.8,5.8v18.7c0,3.2,2.6,5.8,5.8,5.8h18.7c3.2,0,5.8,2.6,5.8,5.8V147.9z"/>
			</g>
		</g>
		<path class="st3" d="M201.8,95.2v83.9c0,7-2.2,12.8-6.6,18c-13-13.8-37-36.1-66.7-43.1h13.9c3.2,0,7.4-3.9,7.4-7.1v-21.8
			c0-3.2-3.2-6.1-6.4-6.1h-15.2c30.2-8,53.5-28.9,66.7-42.9C199.4,81.2,201.8,88.2,201.8,95.2z"/>
		<path class="st3" d="M1.8,95.2v83.9c0,7,2.7,12.8,7.1,18C21.9,183.2,46.4,161,76,154H62.2c-3.2,0-7.4-3.9-7.4-7.1v-21.8
			c0-3.2,3.2-6.1,6.4-6.1h15.2c-30.2-8-54-28.9-67.2-42.9C4.7,81.2,1.8,88.2,1.8,95.2z"/>
	</g>
</g>
</svg>
