<?xml version="1.0" encoding="utf-8"?>
<!-- Generator: Adobe Illustrator 20.1.0, SVG Export Plug-In . SVG Version: 6.00 Build 0)  -->
<svg version="1.1" id="Layer_1" xmlns="http://www.w3.org/2000/svg" xmlns:xlink="http://www.w3.org/1999/xlink" x="0px" y="0px"
	 viewBox="0 0 257.2 273" style="enable-background:new 0 0 257.2 273;" xml:space="preserve">
<style type="text/css">
	.st0{fill:url(#SVGID_1_);}
	.st1{opacity:0.3;fill:#FFFFFF;}
</style>
<g>
	<g>
		<g>
			<linearGradient id="SVGID_1_" gradientUnits="userSpaceOnUse" x1="128.581" y1="42.3844" x2="128.581" y2="237.6659">
				<stop  offset="0" style="stop-color:#BFF8FF"/>
				<stop  offset="1" style="stop-color:#94EBFF"/>
			</linearGradient>
			<path class="st0" d="M25.1,55.9C14.2,62.1,7.5,73.7,7.5,86.3v99.2c0,12.5,6.7,24.1,17.6,30.4l85.9,49.6c10.9,6.3,24.3,6.3,35.1,0
				l85.9-49.6c10.9-6.3,17.6-17.9,17.6-30.4V86.3c0-12.5-6.7-24.1-17.6-30.4L146.1,6.3C135.3,0,121.9,0,111,6.3L25.1,55.9z
				 M185.3,149.9c0,3.9-3.2,7-7,7h-22.6c-3.9,0-7,3.2-7,7v20.9c0,3.9-3.2,7-7,7h-27.7c-3.9,0-7-3.2-7-7V164c0-3.9-3.2-7-7-7H78.9
				c-3.9,0-7-3.2-7-7v-27.7c0-3.9,3.2-7,7-7h20.9c3.9,0,7-3.2,7-7V85.5c0-3.9,3.2-7,7-7h27.7c3.9,0,7,3.2,7,7v22.6c0,3.9,3.2,7,7,7
				h22.6c3.9,0,7,3.2,7,7V149.9z"/>
		</g>
	</g>
	<path class="st1" d="M250,86.3v101.3c0,8.5-3.3,15.6-8.6,21.9c-15.7-16.7-50-43.6-85.8-52.5l22.7,0.5c3.9,0,6.6-3.6,6.6-7.5v-27.7
		c0-3.9-2.9-7.2-6.8-7.2h-22.6c36.5-9,69.6-35.6,85.5-52.5C246.4,68.8,250,77.8,250,86.3z"/>
	<path class="st1" d="M8,86.3v101.3c0,8.5,2.8,15.9,8.1,22.1C31.8,193,64,166.3,99.8,157.4L78.9,157c-3.9,0-6.7-2.9-6.7-6.8
		l-0.3-27.9c0-3.9,3.2-7.2,7-7.2h20.9c-36.5-9-67.5-35.6-83.4-52.5C11.1,68.8,8,77.8,8,86.3z"/>
</g>
</svg>
